<svg width="82" height="90" viewBox="0 0 82 90" fill="none" xmlns="http://www.w3.org/2000/svg">
<path fill-rule="evenodd" clip-rule="evenodd" d="M16.3636 4.09091C16.3636 1.83158 18.1952 0 20.4545 0C22.7139 0 24.5455 1.83158 24.5455 4.09091V8.18182H57.2727V4.09091C57.2727 1.83158 59.1042 0 61.3636 0C63.623 0 65.4545 1.83158 65.4545 4.09091V8.18182H69.5455C76.3237 8.18182 81.8182 13.6765 81.8182 20.4545V77.7273C81.8182 84.5055 76.3237 90 69.5455 90H12.2727C5.4947 90 0 84.5055 0 77.7273V20.4545C0 13.6765 5.4947 8.18182 12.2727 8.18182H16.3636V4.09091ZM57.2727 16.3636V20.4545C57.2727 22.7139 59.1042 24.5455 61.3636 24.5455C63.623 24.5455 65.4545 22.7139 65.4545 20.4545V16.3636H69.5455C71.8049 16.3636 73.6364 18.1952 73.6364 20.4545V32.7273H8.18182V20.4545C8.18182 18.1952 10.0134 16.3636 12.2727 16.3636H16.3636V20.4545C16.3636 22.7139 18.1952 24.5455 20.4545 24.5455C22.7139 24.5455 24.5455 22.7139 24.5455 20.4545V16.3636H57.2727ZM8.18182 40.9091V77.7273C8.18182 79.9867 10.0134 81.8182 12.2727 81.8182H40.9091H69.5455C71.8049 81.8182 73.6364 79.9867 73.6364 77.7273V40.9091H8.18182Z" fill="white"/>
</svg>
