<svg width="15" height="18" viewBox="0 0 15 18" fill="none" xmlns="http://www.w3.org/2000/svg">
<path d="M6.75012 15.748L6.75012 0.749851C6.75012 0.550964 6.82913 0.360222 6.96976 0.219587C7.1104 0.0789528 7.30114 -5.34298e-05 7.50003 -5.34385e-05C7.69891 -5.34472e-05 7.88966 0.0789527 8.03029 0.219587C8.17092 0.360222 8.24993 0.550964 8.24993 0.749851L8.24993 15.748C8.24993 15.9468 8.17093 16.1376 8.03029 16.2782C7.88966 16.4189 7.69891 16.4979 7.50003 16.4979C7.30114 16.4979 7.1104 16.4189 6.96976 16.2782C6.82913 16.1376 6.75012 15.9468 6.75012 15.748Z" fill="white"/>
<path d="M7.5 15.4375L13.7182 9.21782C13.859 9.07701 14.05 8.9979 14.2491 8.9979C14.4483 8.9979 14.6393 9.07701 14.7801 9.21782C14.9209 9.35863 15 9.54961 15 9.74875C15 9.94789 14.9209 10.1389 14.7801 10.2797L8.03093 17.0288C7.96127 17.0987 7.87852 17.1541 7.78741 17.1919C7.69631 17.2297 7.59864 17.2491 7.5 17.2491C7.40136 17.2491 7.30369 17.2297 7.21259 17.1919C7.12148 17.1541 7.03873 17.0987 6.96907 17.0288L0.219919 10.2797C0.079107 10.1389 -3.19148e-07 9.94789 -3.27853e-07 9.74875C-3.36557e-07 9.54961 0.0791069 9.35863 0.219919 9.21782C0.360731 9.07701 0.551714 8.9979 0.750852 8.9979C0.949991 8.9979 1.14097 9.07701 1.28179 9.21782L7.5 15.4375Z" fill="white"/>
</svg>
