<svg width="30" height="28" viewBox="0 0 30 28" fill="none" xmlns="http://www.w3.org/2000/svg">
<path d="M2.61089 12.6957H28.6958C29.0417 12.6957 29.3735 12.8331 29.6181 13.0777C29.8627 13.3223 30.0001 13.654 30.0001 13.9999C30.0001 14.3458 29.8627 14.6776 29.6181 14.9222C29.3735 15.1668 29.0417 15.3042 28.6958 15.3042H2.61089C2.26498 15.3042 1.93324 15.1668 1.68865 14.9222C1.44405 14.6776 1.30664 14.3458 1.30664 13.9999C1.30664 13.654 1.44405 13.3223 1.68865 13.0777C1.93324 12.8331 2.26498 12.6957 2.61089 12.6957Z" fill="white"/>
<path d="M3.15078 13.9999L13.9682 24.8147C14.2131 25.0596 14.3507 25.3918 14.3507 25.7381C14.3507 26.0845 14.2131 26.4166 13.9682 26.6615C13.7233 26.9064 13.3911 27.044 13.0448 27.044C12.6985 27.044 12.3663 26.9064 12.1214 26.6615L0.383171 14.9233C0.261711 14.8022 0.165347 14.6582 0.0995957 14.4998C0.0338448 14.3413 0 14.1715 0 13.9999C0 13.8284 0.0338448 13.6585 0.0995957 13.5C0.165347 13.3416 0.261711 13.1977 0.383171 13.0765L12.1214 1.3383C12.3663 1.0934 12.6985 0.955811 13.0448 0.955811C13.3911 0.955811 13.7233 1.0934 13.9682 1.3383C14.2131 1.5832 14.3507 1.91536 14.3507 2.2617C14.3507 2.60805 14.2131 2.94021 13.9682 3.18511L3.15078 13.9999Z" fill="white"/>
</svg>
