<svg width="22" height="20" viewBox="0 0 22 20" fill="none" xmlns="http://www.w3.org/2000/svg">
<path fill-rule="evenodd" clip-rule="evenodd" d="M11 16C13.7614 16 16 13.7614 16 11C16 8.2386 13.7614 6 11 6C8.23858 6 6 8.2386 6 11C6 13.7614 8.23858 16 11 16ZM11 14.0071C9.3392 14.0071 7.9929 12.6608 7.9929 11C7.9929 9.3392 9.3392 7.9929 11 7.9929C12.6608 7.9929 14.0071 9.3392 14.0071 11C14.0071 12.6608 12.6608 14.0071 11 14.0071Z" fill="white"/>
<path fill-rule="evenodd" clip-rule="evenodd" d="M8.56155 0C7.18495 0 5.985 0.93689 5.65112 2.27239L5.21922 4H3C1.34315 4 0 5.34315 0 7V17C0 18.6569 1.34315 20 3 20H19C20.6569 20 22 18.6569 22 17V7C22 5.34315 20.6569 4 19 4H16.7808L16.3489 2.27239C16.015 0.93689 14.8151 0 13.4384 0H8.56155ZM7.59141 2.75746C7.7027 2.3123 8.10268 2 8.56155 2H13.4384C13.8973 2 14.2973 2.3123 14.4086 2.75746L14.8405 4.48507C15.0631 5.37541 15.863 6 16.7808 6H19C19.5523 6 20 6.44772 20 7V17C20 17.5523 19.5523 18 19 18H3C2.44772 18 2 17.5523 2 17V7C2 6.44772 2.44772 6 3 6H5.21922C6.13696 6 6.93692 5.37541 7.15951 4.48507L7.59141 2.75746Z" fill="white"/>
</svg>
