<svg width="79" height="90" viewBox="0 0 79 90" fill="none" xmlns="http://www.w3.org/2000/svg">
<path d="M57.9894 24.3578V19.4037C57.9894 18.9495 57.6112 18.578 57.1489 18.578H16.8085C16.3463 18.578 15.9681 18.9495 15.9681 19.4037V24.3578C15.9681 24.8119 16.3463 25.1835 16.8085 25.1835H57.1489C57.6112 25.1835 57.9894 24.8119 57.9894 24.3578ZM16.8085 33.4404C16.3463 33.4404 15.9681 33.8119 15.9681 34.2661V39.2202C15.9681 39.6743 16.3463 40.0459 16.8085 40.0459H36.1383C36.6005 40.0459 36.9787 39.6743 36.9787 39.2202V34.2661C36.9787 33.8119 36.6005 33.4404 36.1383 33.4404H16.8085ZM56.3085 45.4128C43.7757 45.4128 33.617 55.3933 33.617 67.7064C33.617 80.0195 43.7757 90 56.3085 90C68.8414 90 79 80.0195 79 67.7064C79 55.3933 68.8414 45.4128 56.3085 45.4128ZM67.6017 78.8016C64.5867 81.7638 60.5737 83.3945 56.3085 83.3945C52.0434 83.3945 48.0303 81.7638 45.0153 78.8016C42.0003 75.8394 40.3404 71.8968 40.3404 67.7064C40.3404 63.5161 42.0003 59.5734 45.0153 56.6112C48.0303 53.6491 52.0434 52.0183 56.3085 52.0183C60.5737 52.0183 64.5867 53.6491 67.6017 56.6112C70.6168 59.5734 72.2766 63.5161 72.2766 67.7064C72.2766 71.8968 70.6168 75.8394 67.6017 78.8016ZM65.6582 59.8624H61.0044C60.7313 59.8624 60.4791 59.9862 60.3215 60.203L53.6507 69.2649L51.2239 65.9725C51.1462 65.8661 51.0436 65.7797 50.9248 65.7204C50.8059 65.6611 50.6744 65.6308 50.5411 65.6319H45.9082C45.2254 65.6319 44.8262 66.3956 45.2254 66.9427L52.9783 77.4805C53.3145 77.9346 53.9973 77.9346 54.3335 77.4805L66.3306 61.1732C66.7403 60.6261 66.3411 59.8624 65.6582 59.8624ZM31.9362 80.0917H7.56383V7.43119H66.3936V42.9358C66.3936 43.3899 66.7718 43.7615 67.234 43.7615H73.117C73.5793 43.7615 73.9574 43.3899 73.9574 42.9358V3.30275C73.9574 1.47592 72.4552 0 70.5957 0H3.3617C1.50226 0 0 1.47592 0 3.30275V84.2202C0 86.047 1.50226 87.5229 3.3617 87.5229H31.9362C32.3984 87.5229 32.7766 87.1514 32.7766 86.6972V80.9174C32.7766 80.4633 32.3984 80.0917 31.9362 80.0917Z" fill="white"/>
</svg>
