<svg width="49" height="60" viewBox="0 0 49 60" fill="none" xmlns="http://www.w3.org/2000/svg">
<path d="M48.0372 60V53.1376C48.0372 47.452 43.4307 42.8439 37.7435 42.8439H10.2937C7.56362 42.8439 4.94539 43.9284 3.01495 45.8588C1.08451 47.7893 0 50.4075 0 53.1376V60H48.0372Z" fill="#3B88C3"/>
<path d="M17.1561 42.8439L24.0186 51.4236L30.881 42.8439V35.9814H17.1561V42.8439Z" fill="#F7DECE"/>
<path d="M17.1561 39.4126C19.2423 41.7699 21.1964 42.3618 24.0117 42.3618C26.8236 42.3618 28.7931 41.7682 30.881 39.4126V32.5502H17.1561V39.4126Z" fill="#EEC2AD"/>
<path d="M30.1896 0.584892C26.8871 -0.483935 19.1154 -0.192281 17.1716 2.3331C12.1208 2.43089 6.19508 6.99614 5.41791 13.0179C4.64931 18.9797 6.36321 21.747 6.97225 26.2299C7.66364 31.3081 10.5184 32.9328 12.8002 33.6122C16.0839 37.9509 19.5751 37.7657 25.4374 37.7657C36.884 37.7657 42.3362 30.1072 42.8183 17.0977C43.1099 9.22987 38.4932 3.27154 30.1896 0.584892Z" fill="#292F33"/>
<path d="M36.7364 17.6552C35.6281 16.1215 34.211 14.8862 31.1023 14.4505C32.269 14.984 33.3858 16.83 33.5317 17.8508C33.6775 18.8716 33.8233 19.6968 32.9003 18.676C29.2032 14.5894 25.1766 16.1987 21.1878 13.7025C18.4017 11.9594 17.5524 10.0293 17.5524 10.0293C17.5524 10.0293 17.2127 12.6028 12.9872 15.2259C11.7622 15.986 10.3005 17.6793 9.49077 20.1806C8.90746 21.9786 9.08932 23.581 9.08932 26.3191C9.08932 34.3138 15.679 41.0356 23.8058 41.0356C31.9327 41.0356 38.5224 34.2538 38.5224 26.3191C38.5207 21.3455 37.9991 19.4035 36.7364 17.6552Z" fill="#F7DECE"/>
<path d="M25.4374 30.4074H22.1674C21.9504 30.4074 21.7422 30.3212 21.5888 30.1677C21.4353 30.0142 21.3491 29.8061 21.3491 29.589C21.3491 29.372 21.4353 29.1639 21.5888 29.0104C21.7422 28.8569 21.9504 28.7707 22.1674 28.7707H25.4374C25.6544 28.7707 25.8626 28.8569 26.0161 29.0104C26.1695 29.1639 26.2557 29.372 26.2557 29.589C26.2557 29.8061 26.1695 30.0142 26.0161 30.1677C25.8626 30.3212 25.6544 30.4074 25.4374 30.4074Z" fill="#C1694F"/>
<path d="M17.2625 24.6841C16.8289 24.6841 16.413 24.5119 16.1064 24.2052C15.7998 23.8986 15.6275 23.4828 15.6275 23.0491V21.4141C15.6275 20.9805 15.7998 20.5647 16.1064 20.258C16.413 19.9514 16.8289 19.7792 17.2625 19.7792C17.6961 19.7792 18.112 19.9514 18.4186 20.258C18.7252 20.5647 18.8975 20.9805 18.8975 21.4141V23.0491C18.8975 23.4828 18.7252 23.8986 18.4186 24.2052C18.112 24.5119 17.6961 24.6841 17.2625 24.6841ZM30.344 24.6841C29.9104 24.6841 29.4946 24.5119 29.1879 24.2052C28.8813 23.8986 28.7091 23.4828 28.7091 23.0491V21.4141C28.7091 20.9805 28.8813 20.5647 29.1879 20.258C29.4946 19.9514 29.9104 19.7792 30.344 19.7792C30.7777 19.7792 31.1935 19.9514 31.5001 20.258C31.8068 20.5647 31.979 20.9805 31.979 21.4141V23.0491C31.979 23.4828 31.8068 23.8986 31.5001 24.2052C31.1935 24.5119 30.7777 24.6841 30.344 24.6841Z" fill="#662113"/>
<path d="M24.0186 37.2355C19.2938 37.2355 17.8424 36.026 17.6005 35.7807C17.3843 35.5755 17.2586 35.2928 17.2509 34.9949C17.2431 34.697 17.3541 34.4082 17.5593 34.192C17.7645 33.9759 18.0472 33.8501 18.3451 33.8424C18.643 33.8347 18.9318 33.9457 19.148 34.1509C19.2372 34.2143 20.3849 34.9864 24.0186 34.9864C27.7929 34.9864 28.8841 34.1543 28.8944 34.1457C28.998 34.0429 29.1212 33.9619 29.2566 33.9075C29.392 33.853 29.537 33.8262 29.683 33.8286C29.8289 33.831 29.9729 33.8626 30.1065 33.9215C30.24 33.9803 30.3605 34.0653 30.4607 34.1714C30.6686 34.3892 30.7825 34.68 30.778 34.981C30.7735 35.282 30.6509 35.5692 30.4367 35.7807C30.1948 36.026 28.7434 37.2355 24.0186 37.2355Z" fill="#C1694F"/>
<path d="M10.2937 53.9954H6.86245C6.86245 46.9716 10.0827 39.4126 17.1561 39.4126V42.8439C11.7279 42.8439 10.2937 50.1387 10.2937 53.9954ZM39.4591 47.1329H36.0279C36.0279 46.4278 35.134 42.8439 30.881 42.8439V39.4126C36.9423 39.4126 39.4591 44.4411 39.4591 47.1329Z" fill="#292F33"/>
<path d="M8.57806 59.1422C11.4206 59.1422 13.7249 56.8379 13.7249 53.9954C13.7249 51.1528 11.4206 48.8485 8.57806 48.8485C5.73554 48.8485 3.43123 51.1528 3.43123 53.9954C3.43123 56.8379 5.73554 59.1422 8.57806 59.1422Z" fill="#CCD6DD"/>
<path d="M8.57807 57.4266C10.4731 57.4266 12.0093 55.8904 12.0093 53.9953C12.0093 52.1003 10.4731 50.5641 8.57807 50.5641C6.68305 50.5641 5.14684 52.1003 5.14684 53.9953C5.14684 55.8904 6.68305 57.4266 8.57807 57.4266Z" fill="#F5F8FA"/>
<path d="M44.6059 56.5688H41.1747C41.1747 55.1362 40.9894 47.9907 37.3146 47.9907C33.6397 47.9907 33.4544 55.1362 33.4544 56.5688H30.0232C30.0232 49.0492 32.7493 44.5595 37.3146 44.5595C41.8798 44.5595 44.6059 49.0492 44.6059 56.5688Z" fill="#292F33"/>
<path d="M31.7388 58.2844C32.6863 58.2844 33.4544 57.5163 33.4544 56.5688C33.4544 55.6213 32.6863 54.8532 31.7388 54.8532C30.7913 54.8532 30.0232 55.6213 30.0232 56.5688C30.0232 57.5163 30.7913 58.2844 31.7388 58.2844Z" fill="#CCD6DD"/>
<path d="M42.8903 58.2844C43.8378 58.2844 44.6059 57.5163 44.6059 56.5688C44.6059 55.6213 43.8378 54.8532 42.8903 54.8532C41.9428 54.8532 41.1747 55.6213 41.1747 56.5688C41.1747 57.5163 41.9428 58.2844 42.8903 58.2844Z" fill="#CCD6DD"/>
</svg>
