<svg width="165" height="208" viewBox="0 0 165 208" fill="none" xmlns="http://www.w3.org/2000/svg">
<path d="M22.2143 121.438L32.0065 117.75H59.5L64.3961 119.963L75.6948 128.076L83.9805 139.14L88.5 154.63V207H1.5V194.83V171.226L3.00649 146.148L11.6688 130.658L22.2143 121.438Z" fill="#007552"/>
<path d="M7.32057 134.388C12.2743 126.866 19.4041 121.004 27.7751 117.571C22.9099 113.98 19.3093 108.96 17.4848 103.224C15.6604 97.4874 15.7049 91.3267 17.6119 85.6169C19.519 79.9071 23.1917 74.9385 28.1083 71.4169C33.0249 67.8954 38.9353 66 45 66C51.0646 66 56.975 67.8954 61.8916 71.4169C66.8082 74.9385 70.4809 79.9071 72.388 85.6169C74.2951 91.3267 74.3396 97.4874 72.5151 103.224C70.6907 108.96 67.0901 113.98 62.2248 117.571C70.4564 120.946 77.4912 126.671 82.4364 134.018C87.3816 141.366 90.0142 150.005 89.9999 158.839V206.887H86.1243V158.839C86.1597 150.148 83.3806 141.676 78.1963 134.67C73.0119 127.663 65.6963 122.493 57.3265 119.92C56.9592 119.813 56.6336 119.597 56.3932 119.301C56.1528 119.005 56.0089 118.644 55.9808 118.265C55.927 117.893 55.9914 117.513 56.165 117.178C56.3386 116.843 56.6128 116.57 56.9497 116.397C61.8241 113.763 65.6748 109.593 67.8937 104.547C70.1127 99.5002 70.5733 93.8645 69.203 88.5294C67.8327 83.1943 64.7094 78.4641 60.3266 75.0856C55.9437 71.7072 50.5509 69.8732 45 69.8732C39.449 69.8732 34.0563 71.7072 29.6734 75.0856C25.2905 78.4641 22.1672 83.1943 20.7969 88.5294C19.4266 93.8645 19.8873 99.5002 22.1062 104.547C24.3251 109.593 28.1759 113.763 33.0502 116.397C33.3826 116.579 33.6555 116.852 33.8367 117.183C34.0179 117.514 34.0999 117.89 34.0729 118.265C34.025 118.638 33.8738 118.989 33.6362 119.282C33.3986 119.574 33.084 119.795 32.7272 119.92C24.3475 122.484 17.02 127.65 11.8253 134.657C6.63066 141.664 3.84376 150.142 3.8756 158.839V206.887H0V158.839C0.000485778 151.633 1.73516 144.532 5.05981 138.125M45 182.116C44.7512 182.119 44.5043 182.074 44.2733 181.982C44.0423 181.891 43.8319 181.755 43.6543 181.582L27.506 165.566C26.4418 164.517 25.5987 163.269 25.0257 161.895C24.4527 160.52 24.1614 159.045 24.1686 157.558C24.1632 156.062 24.4551 154.581 25.0278 153.197C25.6005 151.814 26.4426 150.557 27.506 149.496C28.5847 148.429 29.871 147.589 31.2867 147.03C32.7024 146.47 34.218 146.201 35.7416 146.24C37.2493 146.234 38.7433 146.524 40.138 147.092C41.5327 147.66 42.8008 148.495 43.8696 149.55L45 150.724L46.1303 149.603C48.3104 147.553 51.2002 146.41 54.2045 146.41C57.2088 146.41 60.0986 147.553 62.2787 149.603C64.3958 151.74 65.5821 154.616 65.5821 157.611C65.5821 160.607 64.3958 163.483 62.2787 165.619L46.1303 181.635C45.8141 181.91 45.4184 182.078 45 182.116ZM35.7416 150.084C33.7277 150.087 31.7953 150.873 30.3588 152.273C28.9388 153.692 28.142 155.611 28.142 157.611C28.142 159.611 28.9388 161.53 30.3588 162.95L45 177.471L59.6411 162.95C60.3573 162.257 60.9227 161.426 61.3022 160.507C61.6818 159.589 61.8676 158.603 61.848 157.611C61.8507 155.613 61.0575 153.694 59.6411 152.273C58.1837 150.914 56.2586 150.157 54.2583 150.157C52.258 150.157 50.333 150.914 48.8756 152.273L46.3457 154.782C46.1656 154.961 45.9517 155.103 45.7162 155.2C45.4806 155.297 45.2281 155.347 44.9731 155.347C44.718 155.347 44.4655 155.297 44.2299 155.2C43.9944 155.103 43.7805 154.961 43.6005 154.782L41.1244 152.273C40.4164 151.575 39.5765 151.022 38.6528 150.646C37.7292 150.271 36.7399 150.08 35.7416 150.084Z" fill="#7CACA0"/>
<path d="M74.5 91L87.5 86H124L130.5 89L145.5 100L156.5 115L162.5 136V207H47V190.5V158.5L49 124.5L60.5 103.5L74.5 91Z" fill="#007552"/>
<path d="M149.713 100.514C146.702 97.1538 143.359 94.1178 139.737 91.4544C137.297 89.7739 134.785 88.2396 132.129 86.7783L128.038 84.8786C129.23 83.9873 130.357 83.0107 131.412 81.956C132.512 80.9327 133.544 79.8342 134.498 78.6681C140.319 71.689 143.523 62.8359 143.541 53.6801C143.542 46.3483 141.526 39.1627 137.721 32.938C133.915 26.7134 128.472 21.6989 122.01 18.4631C122.01 18.0247 122.01 17.5863 122.01 17.1479C121.987 12.8902 120.417 8.79169 117.603 5.64172C114.789 2.49175 110.93 0.51307 106.768 0.0867074C102.607 -0.339655 98.438 0.816458 95.0639 3.33241C91.6898 5.84836 89.3494 9.54622 88.4933 13.7139C88.3839 14.8559 88.3839 16.0059 88.4933 17.1479V18.4631C81.9665 21.6385 76.4471 26.6167 72.5643 32.8303C68.6814 39.0439 66.5912 46.2429 66.5318 53.607C66.5428 59.6786 67.9508 65.6631 70.6428 71.0809C73.3349 76.4987 77.2362 81.1991 82.034 84.8055L77.9432 86.7052C75.3083 88.0905 72.7668 89.6527 70.3356 91.3813L66.5318 94.2308C64.3535 96.0947 62.2921 98.0957 60.3596 100.222C58.3551 102.526 56.5086 104.967 54.8334 107.529C48.3568 117.547 44.9358 129.291 45.0009 141.284V207.042H50.1683V141.284C50.1497 131.319 52.7517 121.531 57.7041 112.935L58.1348 112.278C58.9837 110.786 59.9183 109.347 60.9338 107.967C62.0519 106.465 63.2498 105.025 64.5223 103.656C65.7659 102.268 67.0836 100.951 68.4696 99.7107L69.7614 98.5416C70.9815 97.5187 72.2734 96.4958 73.637 95.546V112.205C73.6447 120.199 76.5983 127.9 81.9138 133.785C87.2293 139.67 94.52 143.311 102.345 143.988V160.573C99.0918 161.227 96.1941 163.089 94.2158 165.798C92.2375 168.507 91.3203 171.868 91.6427 175.228C91.9651 178.587 93.504 181.704 95.9599 183.972C98.4158 186.24 101.613 187.496 104.929 187.496C108.244 187.496 111.441 186.24 113.897 183.972C116.353 181.704 117.892 178.587 118.214 175.228C118.537 171.868 117.62 168.507 115.641 165.798C113.663 163.089 110.765 161.227 107.512 160.573V143.842C115.331 143.148 122.612 139.503 127.925 133.621C133.237 127.74 136.196 120.048 136.22 112.059V95.3999C137.782 96.4889 139.268 97.685 140.67 98.98C140.939 99.1333 141.182 99.3308 141.388 99.5645C142.678 100.707 143.9 101.927 145.048 103.218C147.824 106.144 150.235 109.408 152.225 112.935C157.232 121.511 159.861 131.308 159.832 141.284V207.042H165V141.284C165.043 126.235 159.595 111.706 149.713 100.514ZM105 5.09229C107.328 5.09229 109.604 5.79505 111.54 7.11171C113.475 8.42838 114.984 10.2998 115.875 12.4893C116.765 14.6788 116.999 17.0881 116.544 19.4125C116.09 21.7369 114.969 23.872 113.323 25.5478C111.677 27.2236 109.58 28.3648 107.297 28.8272C105.013 29.2895 102.647 29.0522 100.496 28.1453C98.3453 27.2384 96.5071 25.7025 95.2137 23.732C93.9204 21.7615 93.2301 19.4448 93.2301 17.0748C93.2489 13.9028 94.4951 10.8661 96.6983 8.62308C98.9016 6.38006 101.884 5.11146 105 5.09229ZM110.742 168.245C111.5 169.025 112.108 169.942 112.536 170.948C112.963 171.965 113.182 173.058 113.182 174.163C113.182 175.268 112.963 176.362 112.536 177.378C112.108 178.385 111.5 179.301 110.742 180.081C109.99 180.851 109.095 181.46 108.109 181.874C107.123 182.288 106.067 182.499 105 182.493C102.83 182.493 100.749 181.615 99.215 180.053C97.6806 178.491 96.8186 176.372 96.8186 174.163C96.8186 171.954 97.6806 169.836 99.215 168.274C100.749 166.711 102.83 165.834 105 165.834C106.067 165.828 107.123 166.038 108.109 166.452C109.095 166.866 109.99 167.476 110.742 168.245ZM131.124 112.059C131.124 119.112 128.372 125.877 123.473 130.864C118.574 135.852 111.929 138.654 105 138.654C98.0718 138.654 91.427 135.852 86.5278 130.864C81.6285 125.877 78.8762 119.112 78.8762 112.059V92.185C81.9739 90.498 85.2171 89.1039 88.5651 88.0204C89.0548 87.8732 89.4889 87.5777 89.8095 87.173C90.13 86.7683 90.3218 86.2738 90.3593 85.7554C90.4111 85.2475 90.3165 84.7352 90.0871 84.2811C89.8577 83.827 89.5034 83.4507 89.0675 83.1981C84.7935 80.8502 81.0797 77.5732 78.1897 73.5998C75.2997 69.6264 73.3043 65.054 72.3453 60.2072C71.3863 55.3605 71.4871 50.3582 72.6406 45.5556C73.7941 40.753 75.972 36.2677 79.0197 32.4184C79.9115 31.1982 80.9213 30.0722 82.034 29.0574C84.1754 26.9333 86.5897 25.1145 89.211 23.6506C89.527 24.426 89.8864 25.1822 90.2876 25.9156C91.1396 27.3631 92.2046 28.6691 93.4454 29.7881C96.5496 32.7129 100.627 34.3316 104.857 34.318C108.209 34.3157 111.485 33.3007 114.27 31.4018C117.055 29.5029 119.224 26.8053 120.503 23.6506C125.856 26.5352 130.339 30.8455 133.474 36.1214C136.609 41.3974 138.277 47.441 138.301 53.607C138.302 61.1766 135.771 68.5208 131.124 74.4304C130.214 75.635 129.206 76.7593 128.11 77.7914C125.987 79.9367 123.569 81.7578 120.933 83.1981C120.49 83.4476 120.126 83.8209 119.885 84.274C119.643 84.7271 119.534 85.2411 119.57 85.7554C119.642 86.2603 119.839 86.7382 120.144 87.1436C120.474 87.5331 120.893 87.8342 121.364 88.0204C124.739 89.0917 128.007 90.4861 131.124 92.185V112.059Z" fill="white"/>
</svg>
