<svg width="30" height="26" viewBox="0 0 30 26" fill="none" xmlns="http://www.w3.org/2000/svg">
<path fill-rule="evenodd" clip-rule="evenodd" d="M0 1.85714C0 0.831471 0.746192 0 1.66667 0H28.3333C29.2538 0 30 0.831471 30 1.85714C30 2.88281 29.2538 3.71429 28.3333 3.71429H1.66667C0.746192 3.71429 0 2.88281 0 1.85714ZM0 13C0 11.9743 0.746192 11.1429 1.66667 11.1429H28.3333C29.2538 11.1429 30 11.9743 30 13C30 14.0257 29.2538 14.8571 28.3333 14.8571H1.66667C0.746192 14.8571 0 14.0257 0 13ZM0 24.1429C0 23.1172 0.746192 22.2857 1.66667 22.2857H28.3333C29.2538 22.2857 30 23.1172 30 24.1429C30 25.1685 29.2538 26 28.3333 26H1.66667C0.746192 26 0 25.1685 0 24.1429Z" fill="white"/>
</svg>
