<svg width="34" height="34" viewBox="0 0 34 34" fill="none" xmlns="http://www.w3.org/2000/svg">
<path d="M30.7951 8.70104L16.5468 22.9492C15.128 24.3681 10.9162 25.0252 9.97524 24.0843C9.03432 23.1434 9.67653 18.9316 11.0954 17.5128L25.3586 3.24962C25.7103 2.86587 26.1362 2.5574 26.6105 2.34278C27.0847 2.12816 27.5976 2.01181 28.1181 2.00085C28.6384 1.9899 29.1558 2.0845 29.6386 2.27898C30.1215 2.47345 30.56 2.76379 30.9275 3.13239C31.2951 3.501 31.5842 3.94024 31.7774 4.42364C31.9705 4.90705 32.0638 5.42456 32.0514 5.94498C32.039 6.46539 31.9212 6.97796 31.7054 7.45163C31.4894 7.9253 31.1798 8.35035 30.7951 8.70104Z" stroke="white" stroke-width="2.5" stroke-linecap="round" stroke-linejoin="round"/>
<path d="M15.4418 5.11652H7.97411C6.38967 5.11652 4.87023 5.74592 3.74986 6.86629C2.62951 7.98666 2 9.50619 2 11.0906V26.0259C2 27.6104 2.62951 29.1299 3.74986 30.2502C4.87023 31.3706 6.38967 32 7.97411 32H24.4029C27.7036 32 28.8835 29.3117 28.8835 26.0259V18.5583" stroke="white" stroke-width="2.5" stroke-linecap="round" stroke-linejoin="round"/>
</svg>
