<svg width="91" height="91" viewBox="0 0 91 91" fill="none" xmlns="http://www.w3.org/2000/svg">
<path d="M76.43 29.04C80.8288 29.04 84.3926 25.4747 84.3926 21.0759C84.3926 16.6788 80.8286 13.1134 76.43 13.1134C72.0311 13.1134 68.466 16.6788 68.466 21.0759C68.466 25.4747 72.0313 29.04 76.43 29.04Z" fill="white"/>
<path d="M12.5562 29.04H57.4706C61.8677 29.04 65.4331 25.4747 65.4331 21.0759C65.4331 16.6788 61.8677 13.1134 57.4706 13.1134H34.2169L12.5562 16.9351C9.2134 16.9351 6.50437 19.6455 6.50437 22.9883C6.50455 26.3296 9.2134 29.04 12.5562 29.04Z" fill="white"/>
<path d="M0 34.2354V42.1165H24.2899L42.6168 54.2461L29.8318 62.7059C30.8861 63.6852 31.7428 64.8714 32.3306 66.2068L68.7331 42.1166H91V34.2355L0 34.2354ZM46.5106 51.6676L32.0789 42.1165H60.9425L46.5106 51.6676Z" fill="white"/>
<path d="M22.603 63.0712C18.5128 63.0712 15.1975 66.3863 15.1961 70.4781C15.1977 74.5699 18.513 77.885 22.603 77.8866C26.6948 77.885 30.0099 74.5697 30.0099 70.4781C30.0099 66.3863 26.6946 63.0712 22.603 63.0712ZM25.5607 73.4372C24.7995 74.1954 23.7634 74.6619 22.603 74.6619C21.4442 74.6619 20.4082 74.1956 19.6455 73.4372C18.8873 72.6743 18.4223 71.6385 18.4207 70.4781C18.4223 69.3176 18.8875 68.2832 19.6455 67.5206C20.4082 66.7608 21.4442 66.2958 22.603 66.2942C23.7633 66.2958 24.7995 66.7608 25.5607 67.5206C26.3203 68.2832 26.7855 69.3176 26.7869 70.4781C26.7855 71.6385 26.3203 72.6743 25.5607 73.4372Z" fill="white"/>
<path d="M68.3968 63.0712C64.3034 63.0712 60.9913 66.3863 60.9899 70.4781C60.9915 74.5699 64.3036 77.885 68.3968 77.8866C72.4886 77.885 75.8037 74.5697 75.8053 70.4781C75.8039 66.3863 72.4886 63.0712 68.3968 63.0712ZM71.3545 73.4372C70.5932 74.1954 69.5572 74.6619 68.3968 74.6619C67.2364 74.6619 66.2005 74.1956 65.4393 73.4372C64.6795 72.6743 64.2145 71.6385 64.2145 70.4781C64.2145 69.3176 64.6795 68.2832 65.4393 67.5206C66.2005 66.7608 67.2364 66.2958 68.3968 66.2942C69.557 66.2942 70.5932 66.7608 71.3545 67.5206C72.1141 68.2832 72.5792 69.3176 72.5807 70.4781C72.5792 71.6385 72.1143 72.6743 71.3545 73.4372Z" fill="white"/>
<path d="M62.0643 61.96L52.4995 55.6305L48.6043 58.2073L59.179 65.2045C59.9095 63.9337 60.8948 62.8318 62.0643 61.96Z" fill="white"/>
</svg>
