<svg width="16" height="16" viewBox="0 0 16 16" fill="none" xmlns="http://www.w3.org/2000/svg">
<path d="M5.33333 2.10074H4C4 0.91032 4.86667 0 6 0V1.40049C5.6 1.40049 5.33333 1.68059 5.33333 2.10074Z" fill="white"/>
<path d="M12 2.10074H10.6667C10.6667 1.68059 10.4 1.40049 10 1.40049V0C11.1333 0 12 0.91032 12 2.10074Z" fill="white"/>
<path d="M12 4.20148H4V2.10074H5.33333V2.80098H10.6667V2.10074H12V4.20148Z" fill="white"/>
<path d="M10 0H6V1.40049H10V0Z" fill="white"/>
<path d="M14 15.4054H2C0.866667 15.4054 0 14.4951 0 13.3047V4.90173C0 3.71131 0.866667 2.80099 2 2.80099H14C15.1333 2.80099 16 3.71131 16 4.90173V13.3047C16 14.4951 15.1333 15.4054 14 15.4054ZM2 4.20149C1.6 4.20149 1.33333 4.48158 1.33333 4.90173V13.3047C1.33333 13.7248 1.6 14.0049 2 14.0049H14C14.4 14.0049 14.6667 13.7248 14.6667 13.3047V4.90173C14.6667 4.48158 14.4 4.20149 14 4.20149H2Z" fill="white"/>
<path d="M8.00004 12.6044C7.60004 12.6044 7.33337 12.3243 7.33337 11.9042V6.3022C7.33337 5.88206 7.60004 5.60196 8.00004 5.60196C8.40004 5.60196 8.66671 5.88206 8.66671 6.3022V11.9042C8.66671 12.3243 8.40004 12.6044 8.00004 12.6044Z" fill="white"/>
<path d="M10.6666 9.80345H5.33329C4.93329 9.80345 4.66663 9.52335 4.66663 9.1032C4.66663 8.68305 4.93329 8.40295 5.33329 8.40295H10.6666C11.0666 8.40295 11.3333 8.68305 11.3333 9.1032C11.3333 9.52335 11.0666 9.80345 10.6666 9.80345Z" fill="white"/>
</svg>
