<svg width="141" height="20" viewBox="0 0 141 20" fill="none" xmlns="http://www.w3.org/2000/svg">
<path d="M4.72754 0.645508V5.52344C5.5332 4.58594 6.74902 4.11719 8.38965 4.11719C9.91309 4.11719 11.1289 4.57129 12.0225 5.47949C12.916 6.40234 13.3701 7.75 13.3701 9.52246V18.458C13.3701 18.7656 13.1064 19 12.8281 19H10.0449C9.7666 19 9.50293 18.7949 9.50293 18.458V9.66895C9.50293 9.18555 9.3125 8.7168 8.94629 8.2334C8.58008 7.75 7.97949 7.51562 7.15918 7.51562C6.26562 7.51562 5.44531 7.85254 4.72754 8.52637V18.458C4.72754 18.7656 4.47852 19 4.18555 19H1.40234C1.12402 19 0.860352 18.7949 0.860352 18.458V0.645508C0.860352 0.337891 1.12402 0.103516 1.40234 0.103516H4.18555C4.46387 0.103516 4.72754 0.337891 4.72754 0.645508ZM20.3721 10.0352H24.9863C24.9863 8.35059 24.2246 7.51562 22.7012 7.51562C22.2178 7.51562 21.9541 7.53027 21.3682 7.80859C20.7676 8.08691 20.3721 8.87793 20.3721 10.0352ZM28.8535 10.1816V12.7305C28.8535 13.0381 28.6045 13.2725 28.3115 13.2725H20.4014V13.3896C20.4453 14.3857 20.7529 15.0449 21.3389 15.3672C21.9102 15.6895 22.9062 15.8506 24.2979 15.8506C25.1182 15.8506 26.041 15.7773 27.0518 15.6455C27.2422 15.6455 27.3887 15.7334 27.4766 15.9092L27.8721 18.4873C27.8721 18.6777 27.7842 18.8096 27.5938 18.8828C26.7734 19.1318 25.3232 19.249 23.2432 19.2344C21.1777 19.2344 19.5371 18.6924 18.3213 17.5938C17.1055 16.5098 16.4902 14.7812 16.4902 12.4229V10.1816C16.4902 9.74219 16.5195 9.31738 16.5781 8.90723C16.6221 8.49707 16.7686 7.98438 17.0176 7.35449C17.252 6.73926 17.5742 6.21191 17.9697 5.77246C18.7754 4.89355 20.4307 4.11719 22.5986 4.11719C24.752 4.11719 26.4658 4.86426 27.3008 5.75781C27.7256 6.21191 28.0625 6.73926 28.3115 7.33984C28.8096 8.57031 28.8535 9.34668 28.8535 10.1816ZM39.5322 15.3086V13.0234H38.2725C36.5586 13.0234 35.6943 13.5068 35.6797 14.4736C35.6797 15.6602 36.2217 16.0264 37.5693 16.0264C38.873 16.0264 39.5322 15.792 39.5322 15.3086ZM33.5264 7.89648C33.3359 7.89648 33.1895 7.80859 33.1016 7.63281L32.6621 5.14258C32.6621 4.95215 32.7646 4.79102 32.9551 4.68848C34.1562 4.30762 35.6211 4.11719 37.3643 4.11719C41.1729 4.11719 43.3994 6.12402 43.3994 9.97656V17.9453C43.3994 18.2676 42.6816 18.5605 41.2607 18.8242C39.8252 19.1025 38.624 19.2344 37.6426 19.2344C35.958 19.2344 34.8154 19.0586 33.6436 18.458C32.457 17.8574 31.8125 16.5977 31.8125 14.7666C31.8125 12.9502 32.2812 11.6904 33.2041 11.002C34.127 10.3135 35.3867 9.97656 36.9834 9.97656H39.2832V9.78613C39.2832 8.10156 38.4629 7.51562 36.5879 7.51562C35.665 7.50098 34.6543 7.63281 33.5264 7.89648ZM50.8408 0.645508V18.458C50.8408 18.7656 50.5918 19 50.2988 19H47.5156C47.2373 19 46.9736 18.7949 46.9736 18.458V0.645508C46.9736 0.337891 47.2373 0.103516 47.5156 0.103516H50.2988C50.5771 0.103516 50.8408 0.337891 50.8408 0.645508ZM62.1787 19.0879C61.373 19.1904 60.8018 19.2344 60.4355 19.2344C57.2568 19.2344 55.6602 17.4912 55.6748 13.9902V7.75H54.1953C53.8877 7.75 53.668 7.48633 53.668 7.20801V4.89355C53.668 4.61523 53.8877 4.36621 54.1953 4.36621H55.6748V2.56445L56.085 0.674805C56.1875 0.293945 56.3779 0.103516 56.6562 0.103516H59C59.2783 0.103516 59.542 0.308594 59.542 0.645508V4.36621H61.8857C62.1934 4.36621 62.4277 4.61523 62.4277 4.89355V7.20801C62.4277 7.48633 62.1934 7.75 61.8857 7.75H59.542V13.9316C59.542 15.2061 60.1572 15.8506 61.373 15.8506C61.417 15.8506 61.5488 15.8359 61.7979 15.8213C62.0322 15.8066 62.1641 15.792 62.1787 15.792C62.4863 15.792 62.7207 16.041 62.7207 16.334V18.5166C62.7207 18.8389 62.5449 19.0293 62.1787 19.0879ZM69.8545 0.645508V5.52344C70.6602 4.58594 71.876 4.11719 73.5166 4.11719C75.04 4.11719 76.2559 4.57129 77.1494 5.47949C78.043 6.40234 78.4971 7.75 78.4971 9.52246V18.458C78.4971 18.7656 78.2334 19 77.9551 19H75.1719C74.8936 19 74.6299 18.7949 74.6299 18.458V9.66895C74.6299 9.18555 74.4395 8.7168 74.0732 8.2334C73.707 7.75 73.1064 7.51562 72.2861 7.51562C71.3926 7.51562 70.5723 7.85254 69.8545 8.52637V18.458C69.8545 18.7656 69.6055 19 69.3125 19H66.5293C66.251 19 65.9873 18.7949 65.9873 18.458V0.645508C65.9873 0.337891 66.251 0.103516 66.5293 0.103516H69.3125C69.5908 0.103516 69.8545 0.337891 69.8545 0.645508Z" fill="white"/>
<path d="M86.1289 7.7793L85.792 7.86719V15.5137C86.627 15.7334 87.3301 15.8506 87.9014 15.8506C88.6045 15.8506 89.2051 15.6748 89.7178 15.3086C90.2305 14.9424 90.4941 14.3564 90.5381 13.5361C90.582 12.833 90.5967 12.1885 90.5967 11.5879L90.5381 9.78613C90.4648 8.2627 89.5859 7.50098 87.9014 7.51562C87.418 7.51562 86.5977 7.66211 86.1289 7.7793ZM81.9248 17.9746V0.645508C81.9248 0.337891 82.1885 0.103516 82.4668 0.103516H85.25C85.5283 0.103516 85.792 0.308594 85.792 0.645508V4.86426C86.6855 4.36621 87.7695 4.11719 89.0293 4.11719C90.2598 4.11719 91.4609 4.55664 92.5889 5.55273C93.7168 6.56348 94.4639 8.51172 94.4639 11.1045C94.4639 14.0635 93.9365 16.1582 92.8818 17.3887C91.8125 18.6191 90.2891 19.2344 88.2822 19.2344C87.1396 19.2344 85.792 19.1025 84.2539 18.8389C82.7012 18.5898 81.9248 18.2969 81.9248 17.9746ZM105.011 15.3086V13.0234H103.751C102.037 13.0234 101.173 13.5068 101.158 14.4736C101.158 15.6602 101.7 16.0264 103.048 16.0264C104.352 16.0264 105.011 15.792 105.011 15.3086ZM99.0049 7.89648C98.8145 7.89648 98.668 7.80859 98.5801 7.63281L98.1406 5.14258C98.1406 4.95215 98.2432 4.79102 98.4336 4.68848C99.6348 4.30762 101.1 4.11719 102.843 4.11719C106.651 4.11719 108.878 6.12402 108.878 9.97656V17.9453C108.878 18.2676 108.16 18.5605 106.739 18.8242C105.304 19.1025 104.103 19.2344 103.121 19.2344C101.437 19.2344 100.294 19.0586 99.1221 18.458C97.9355 17.8574 97.291 16.5977 97.291 14.7666C97.291 12.9502 97.7598 11.6904 98.6826 11.002C99.6055 10.3135 100.865 9.97656 102.462 9.97656H104.762V9.78613C104.762 8.10156 103.941 7.51562 102.066 7.51562C101.144 7.50098 100.133 7.63281 99.0049 7.89648ZM121.095 18.458V9.81543C121.095 8.27734 120.187 7.50098 118.385 7.51562C117.857 7.51562 117.052 7.66211 116.656 7.7793L116.319 7.86719V18.458C116.319 18.7656 116.07 19 115.777 19H112.994C112.716 19 112.452 18.7949 112.452 18.458V5.55273C112.452 5.23047 113.258 4.9082 114.854 4.58594C116.451 4.27832 117.77 4.11719 118.78 4.11719C120.802 4.11719 122.34 4.65918 123.395 5.74316C124.435 6.8418 124.962 8.83398 124.962 11.7344V18.458C124.962 18.7656 124.698 19 124.42 19H121.637C121.358 19 121.095 18.7656 121.095 18.458ZM136.256 15.6162L136.607 15.5137V7.86719C135.772 7.61816 135.069 7.50098 134.513 7.51562C132.828 7.51562 131.949 8.27734 131.876 9.78613C131.832 10.3867 131.817 10.9873 131.803 11.5879L131.876 13.5361C131.92 14.3564 132.184 14.9424 132.696 15.3086C133.209 15.6748 133.81 15.8506 134.513 15.8506C134.996 15.8506 135.802 15.7334 136.256 15.6162ZM140.475 0.645508V17.9746C140.475 18.2969 139.698 18.5898 138.16 18.8389C136.607 19.1025 135.26 19.2344 134.117 19.2344C132.11 19.2344 130.587 18.6191 129.532 17.3887C128.463 16.1582 127.936 14.0635 127.936 11.1045C127.936 8.51172 128.683 6.56348 129.825 5.55273C130.968 4.55664 132.125 4.11719 133.37 4.11719C134.63 4.11719 135.714 4.36621 136.607 4.86426V0.645508C136.607 0.337891 136.871 0.103516 137.149 0.103516H139.933C140.211 0.103516 140.475 0.337891 140.475 0.645508Z" fill="#EC3232"/>
</svg>
