<svg width="15" height="16" viewBox="0 0 15 16" fill="none" xmlns="http://www.w3.org/2000/svg">
<path fill-rule="evenodd" clip-rule="evenodd" d="M9.75 5.39189V10.0135C9.75 10.4387 9.414 10.7838 9 10.7838C8.586 10.7838 8.25 10.4387 8.25 10.0135V8.47297H6.75V10.0135C6.75 10.4387 6.414 10.7838 6 10.7838C5.586 10.7838 5.25 10.4387 5.25 10.0135V5.39189C5.25 4.9667 5.586 4.62162 6 4.62162C6.414 4.62162 6.75 4.9667 6.75 5.39189V6.93243H8.25V5.39189C8.25 4.9667 8.586 4.62162 9 4.62162C9.414 4.62162 9.75 4.9667 9.75 5.39189ZM13.5 13.0946C13.5 13.5198 13.164 13.8649 12.75 13.8649H2.25C1.836 13.8649 1.5 13.5198 1.5 13.0946V2.31081C1.5 1.88562 1.836 1.54054 2.25 1.54054H12.75C13.164 1.54054 13.5 1.88562 13.5 2.31081V13.0946ZM13.5 0H1.5C0.67125 0 0 0.689392 0 1.54054V13.8649C0 14.7152 0.67125 15.4054 1.5 15.4054H13.5C14.3287 15.4054 15 14.7152 15 13.8649V1.54054C15 0.689392 14.3287 0 13.5 0Z" fill="white"/>
</svg>
