<svg width="78" height="91" viewBox="0 0 78 91" fill="none" xmlns="http://www.w3.org/2000/svg">
<path d="M56.426 18.7844H16.5958C16.1376 18.7844 15.7661 19.1581 15.7661 19.6191V24.6287C15.7661 25.0898 16.1376 25.4635 16.5958 25.4635H56.426C56.8842 25.4635 57.2557 25.0898 57.2557 24.6287V19.6191C57.2557 19.1581 56.8842 18.7844 56.426 18.7844Z" fill="white"/>
<path d="M31.5322 80.9817H7.47109V7.5139H65.5526V43.415C65.5534 43.6363 65.6412 43.8483 65.7968 44.0047C65.9525 44.1612 66.1633 44.2492 66.3833 44.2498H72.1912C72.411 44.2492 72.6218 44.1611 72.7773 44.0047C72.9328 43.8482 73.0203 43.6362 73.0208 43.415V3.34004C73.0214 2.90135 72.9359 2.46687 72.7693 2.06147C72.6027 1.65607 72.3583 1.2877 72.05 0.977457C71.7417 0.667214 71.3757 0.421185 70.9728 0.253455C70.5699 0.0857251 70.1381 -0.000412346 69.7021 -2.82448e-05H3.31972C2.88362 -0.000540376 2.4517 0.0855033 2.0487 0.253176C1.6457 0.420848 1.27954 0.666857 0.971168 0.977113C0.6628 1.28737 0.418288 1.65578 0.251635 2.06124C0.0849829 2.46671 -0.000537274 2.90127 -2.82587e-05 3.34004V85.1566C-0.000410023 85.5953 0.0852041 86.0297 0.251914 86.4351C0.418623 86.8404 0.663155 87.2087 0.97151 87.5189C1.27987 87.829 1.64599 88.0749 2.04893 88.2425C2.45186 88.4102 2.8837 88.4962 3.31972 88.4957H31.5322C31.7521 88.4951 31.9629 88.407 32.1184 88.2506C32.2738 88.0941 32.3614 87.8821 32.3619 87.6609V81.8165C32.3614 81.5953 32.2738 81.3832 32.1184 81.2268C31.9629 81.0704 31.7521 80.9822 31.5322 80.9817Z" fill="white"/>
<path d="M77.9923 67.8774C77.9923 67.6896 77.9797 67.5028 77.971 67.317C77.3859 55.7819 68.1994 46.5352 56.7306 45.9466C56.545 45.9378 56.3593 45.93 56.1736 45.9252C55.988 45.9203 55.7868 45.9174 55.5934 45.9174C43.2215 45.9174 33.1936 56.0086 33.1936 68.4592C33.1899 71.4195 33.7676 74.3514 34.8934 77.0864C36.0192 79.8215 37.6709 82.3058 39.7538 84.3967C40.5784 85.2263 41.4655 85.9903 42.4073 86.6821C42.5523 86.7892 42.6974 86.8933 42.8463 86.9964C42.9952 87.0995 43.1432 87.2007 43.294 87.2999C43.3685 87.3505 43.4439 87.3972 43.5203 87.4478C43.6711 87.5451 43.8239 87.6424 43.9777 87.7397C44.3645 87.9752 44.7571 88.1989 45.1555 88.411C45.3151 88.4957 45.4766 88.5793 45.639 88.6601C45.8015 88.7409 45.9649 88.8206 46.1293 88.8975C46.2937 88.9744 46.459 89.0502 46.6254 89.1232C49.4558 90.3631 52.5097 91.003 55.5968 91.003C58.6838 91.003 61.7378 90.3631 64.5682 89.1232C64.7346 89.0493 64.8999 88.974 65.0643 88.8975C65.2287 88.8206 65.3912 88.7409 65.5536 88.6601C65.7161 88.5793 65.8766 88.4957 66.0371 88.411C66.4368 88.1989 66.8291 87.9752 67.214 87.7397C67.3677 87.6424 67.5205 87.55 67.6723 87.4478C67.7487 87.3992 67.8242 87.3505 67.8986 87.2999C68.0482 87.2007 68.1971 87.0995 68.3454 86.9964C68.4936 86.8933 68.6403 86.7885 68.7854 86.6821C69.7268 85.9903 70.6136 85.2262 71.4379 84.3967C73.5212 82.3058 75.1733 79.8214 76.2995 77.0862C77.4256 74.351 78.0035 71.4188 78 68.4582C78 68.2643 77.9974 68.0707 77.9923 67.8774ZM66.7488 79.6771C64.9154 81.5223 62.658 82.8842 60.1765 83.6419C57.695 84.3997 55.066 84.53 52.5225 84.0212C49.979 83.5124 47.5995 82.3804 45.5947 80.7253C43.59 79.0701 42.0219 76.9431 41.0295 74.5326C40.037 72.1221 39.6508 69.5025 39.905 66.9059C40.1592 64.3093 41.0461 61.8159 42.4869 59.6465C43.9278 57.4772 45.8782 55.6988 48.1654 54.4691C50.4526 53.2394 53.0059 52.5962 55.5992 52.5965V68.4553L66.7488 79.6771Z" fill="white"/>
<path d="M35.6807 33.8122H16.5958C16.1376 33.8122 15.7661 34.1859 15.7661 34.647V39.6566C15.7661 40.1176 16.1376 40.4914 16.5958 40.4914H35.6807C36.139 40.4914 36.5104 40.1176 36.5104 39.6566V34.647C36.5104 34.1859 36.139 33.8122 35.6807 33.8122Z" fill="white"/>
</svg>
