<svg width="165" height="188" viewBox="0 0 165 188" fill="none" xmlns="http://www.w3.org/2000/svg">
<path d="M97.125 100.25L106.875 96.5H134.25L139.125 98.75L150.375 107L158.625 118.25L163.125 134V187.25H76.5V174.875V150.875L78 125.375L86.625 109.625L97.125 100.25Z" fill="#007552"/>
<path d="M153.535 107.386C151.276 104.865 148.769 102.588 146.053 100.591C144.222 99.3304 142.339 98.1797 140.347 97.0837L137.279 95.659C138.172 94.9905 139.018 94.258 139.809 93.467C140.634 92.6995 141.408 91.8757 142.123 91.0011C146.489 85.7668 148.892 79.1269 148.905 72.2601C148.907 66.7612 147.395 61.372 144.54 56.7035C141.686 52.0351 137.604 48.2742 132.757 45.8473C132.757 45.5185 132.757 45.1897 132.757 44.8609C132.74 41.6676 131.563 38.5938 129.452 36.2313C127.342 33.8688 124.447 32.3848 121.326 32.065C118.205 31.7453 115.078 32.6123 112.548 34.4993C110.017 36.3863 108.262 39.1597 107.62 42.2854C107.538 43.1419 107.538 44.0045 107.62 44.8609V45.8473C102.725 48.2289 98.5853 51.9625 95.6732 56.6227C92.761 61.2829 91.1934 66.6822 91.1489 72.2053C91.1571 76.7589 92.2131 81.2473 94.2321 85.3107C96.2512 89.374 99.1771 92.8994 102.776 95.6042L99.7074 97.0289C97.7312 98.0679 95.8251 99.2395 94.0017 100.536L91.1489 102.673C89.5151 104.071 87.969 105.572 86.5197 107.167C85.0163 108.894 83.6315 110.725 82.375 112.646C77.5176 120.16 74.9519 128.968 75.0007 137.963V187.282H78.8762V137.963C78.8623 130.489 80.8138 123.148 84.5281 116.701L84.8511 116.208C85.4878 115.09 86.1887 114.01 86.9503 112.975C87.7889 111.848 88.6874 110.769 89.6417 109.742C90.5744 108.701 91.5627 107.713 92.6022 106.783L93.5711 105.906C94.4861 105.139 95.455 104.372 96.4777 103.66V116.154C96.4836 122.15 98.6987 127.925 102.685 132.339C106.672 136.753 112.14 139.483 118.009 139.991V152.43C115.569 152.92 113.396 154.317 111.912 156.348C110.428 158.38 109.74 160.901 109.982 163.421C110.224 165.94 111.378 168.278 113.22 169.979C115.062 171.68 117.46 172.622 119.946 172.622C122.433 172.622 124.831 171.68 126.673 169.979C128.515 168.278 129.669 165.94 129.911 163.421C130.153 160.901 129.465 158.38 127.981 156.348C126.497 154.317 124.324 152.92 121.884 152.43V139.881C127.748 139.361 133.209 136.627 137.193 132.216C141.178 127.805 143.397 122.036 143.415 116.044V103.55C144.586 104.367 145.701 105.264 146.752 106.235C146.954 106.35 147.136 106.498 147.291 106.673C148.258 107.53 149.175 108.445 150.036 109.413C152.118 111.608 153.926 114.056 155.419 116.701C159.174 123.133 161.146 130.481 161.124 137.963V187.282H165V137.963C165.032 126.676 160.947 115.78 153.535 107.386ZM120 35.8192C121.746 35.8192 123.453 36.3463 124.905 37.3338C126.356 38.3213 127.488 39.7248 128.156 41.367C128.824 43.0091 128.999 44.8161 128.658 46.5594C128.318 48.3027 127.477 49.904 126.242 51.1608C125.008 52.4177 123.435 53.2736 121.722 53.6204C120.01 53.9671 118.235 53.7892 116.622 53.109C115.009 52.4288 113.63 51.2769 112.66 49.799C111.69 48.3211 111.173 46.5836 111.173 44.8061C111.187 42.4271 112.121 40.1496 113.774 38.4673C115.426 36.785 117.663 35.8336 120 35.8192ZM124.306 158.184C124.875 158.769 125.331 159.456 125.652 160.211C125.972 160.973 126.137 161.794 126.137 162.622C126.137 163.451 125.972 164.271 125.652 165.034C125.331 165.789 124.875 166.476 124.306 167.061C123.742 167.638 123.071 168.095 122.332 168.406C121.593 168.716 120.8 168.874 120 168.869C118.373 168.869 116.812 168.211 115.661 167.04C114.51 165.868 113.864 164.279 113.864 162.622C113.864 160.966 114.51 159.377 115.661 158.205C116.812 157.034 118.373 156.375 120 156.375C120.8 156.371 121.593 156.529 122.332 156.839C123.071 157.15 123.742 157.607 124.306 158.184ZM139.593 116.044C139.593 121.334 137.529 126.408 133.855 130.148C130.18 133.889 125.197 135.99 120 135.99C114.804 135.99 109.82 133.889 106.146 130.148C102.471 126.408 100.407 121.334 100.407 116.044V101.139C102.73 99.8735 105.163 98.8279 107.674 98.0153C108.041 97.9049 108.367 97.6832 108.607 97.3797C108.848 97.0762 108.991 96.7054 109.019 96.3165C109.058 95.9356 108.987 95.5514 108.815 95.2108C108.643 94.8703 108.378 94.588 108.051 94.3986C104.845 92.6377 102.06 90.1799 99.8923 87.1999C97.7248 84.2198 96.2283 80.7905 95.509 77.1554C94.7897 73.5204 94.8653 69.7687 95.7305 66.1667C96.5956 62.5647 98.229 59.2008 100.515 56.3138C101.184 55.3986 101.941 54.5542 102.776 53.7931C104.382 52.2 106.192 50.8359 108.158 49.738C108.395 50.3195 108.665 50.8867 108.966 51.4367C109.605 52.5223 110.403 53.5018 111.334 54.341C113.662 56.5347 116.72 57.7487 119.893 57.7385C122.407 57.7367 124.864 56.9756 126.953 55.5514C129.041 54.1271 130.668 52.104 131.627 49.738C135.642 51.9014 139.004 55.1341 141.355 59.0911C143.706 63.0481 144.958 67.5808 144.976 72.2053C144.977 77.8825 143.078 83.3906 139.593 87.8228C138.911 88.7262 138.154 89.5695 137.333 90.3435C135.74 91.9525 133.927 93.3184 131.95 94.3986C131.618 94.5857 131.345 94.8657 131.163 95.2055C130.982 95.5454 130.9 95.9308 130.927 96.3165C130.981 96.6953 131.129 97.0536 131.358 97.3577C131.605 97.6498 131.92 97.8757 132.273 98.0153C134.804 98.8188 137.256 99.8646 139.593 101.139V116.044Z" fill="#7CACA0"/>
<path d="M29.619 73.9174L42.6753 69H79.3333L85.8615 71.9504L100.926 82.7686L111.974 97.5207L118 118.174V188H2V171.773V140.302L4.00866 106.864L15.5584 86.2107L29.619 73.9174Z" fill="#007552"/>
<path d="M9.76076 91.184C16.3658 81.1549 25.8721 73.3392 37.0335 68.7617C30.5465 63.9736 25.7457 57.28 23.3131 49.6316C20.8805 41.9831 20.9398 33.7689 23.4826 26.1559C26.0254 18.5428 30.9223 11.918 37.4778 7.22259C44.0332 2.5272 51.9138 0 60 0C68.0861 0 75.9667 2.5272 82.5222 7.22259C89.0776 11.918 93.9746 18.5428 96.5173 26.1559C99.0601 33.7689 99.1194 41.9831 96.6868 49.6316C94.2542 57.28 89.4534 63.9736 82.9665 68.7617C93.9418 73.2616 103.322 80.8944 109.915 90.6911C116.509 100.488 120.019 112.007 120 123.785V187.849H114.832V123.785C114.88 112.198 111.174 100.902 104.262 91.5597C97.3492 82.2178 87.595 75.3241 76.4354 71.8937C75.9456 71.7503 75.5115 71.4624 75.1909 71.0681C74.8704 70.6739 74.6786 70.1921 74.6411 69.687C74.5694 69.1902 74.6552 68.6835 74.8866 68.2371C75.1181 67.7907 75.4837 67.4268 75.933 67.1956C82.4321 63.6836 87.5664 58.1242 90.525 51.3956C93.4836 44.667 94.0978 37.1526 92.2707 30.0392C90.4436 22.9258 86.2793 16.6188 80.4354 12.1142C74.5916 7.60963 67.4012 5.16424 60 5.16424C52.5987 5.16424 45.4084 7.60963 39.5645 12.1142C33.7207 16.6188 29.5563 22.9258 27.7292 30.0392C25.9021 37.1526 26.5164 44.667 29.4749 51.3956C32.4335 58.1242 37.5678 63.6836 44.067 67.1956C44.5101 67.4387 44.874 67.8024 45.1156 68.2439C45.3572 68.6853 45.4665 69.186 45.4306 69.687C45.3666 70.1835 45.165 70.6526 44.8483 71.0421C44.5315 71.4317 44.112 71.7265 43.6363 71.8937C32.4633 75.3115 22.6933 82.1998 15.7671 91.5428C8.84088 100.886 5.12502 112.189 5.16746 123.785V187.849H0V123.785C0.000647704 114.178 2.31354 104.709 6.74641 96.1668M60 154.821C59.6683 154.826 59.339 154.765 59.031 154.643C58.7231 154.521 58.4426 154.339 58.2057 154.109L36.6746 132.754C35.2557 131.357 34.1316 129.693 33.3676 127.859C32.6037 126.026 32.2152 124.061 32.2249 122.077C32.2176 120.083 32.6068 118.108 33.3704 116.263C34.1339 114.419 35.2568 112.742 36.6746 111.329C38.113 109.905 39.828 108.786 41.7156 108.039C43.6032 107.293 45.624 106.935 47.6555 106.986C49.6657 106.979 51.6577 107.365 53.5173 108.123C55.3769 108.88 57.0677 109.994 58.4928 111.4L60 112.966L61.5071 111.471C64.4138 108.737 68.267 107.214 72.2727 107.214C76.2784 107.214 80.1315 108.737 83.0382 111.471C85.861 114.32 87.4427 118.154 87.4427 122.148C87.4427 126.142 85.861 129.977 83.0382 132.826L61.5071 154.18C61.0855 154.546 60.5579 154.77 60 154.821ZM47.6555 112.112C44.9703 112.116 42.3937 113.164 40.4784 115.03C38.5851 116.923 37.5227 119.482 37.5227 122.148C37.5227 124.815 38.5851 127.373 40.4784 129.266L60 148.628L79.5215 129.266C80.4764 128.342 81.2302 127.234 81.7363 126.01C82.2424 124.785 82.4901 123.471 82.4641 122.148C82.4676 119.484 81.41 116.925 79.5215 115.03C77.5782 113.218 75.0115 112.21 72.3444 112.21C69.6774 112.21 67.1107 113.218 65.1674 115.03L61.7942 118.376C61.5542 118.615 61.269 118.804 60.9549 118.933C60.6408 119.063 60.3041 119.129 59.9641 119.129C59.624 119.129 59.2873 119.063 58.9733 118.933C58.6592 118.804 58.374 118.615 58.1339 118.376L54.8325 115.03C53.8885 114.099 52.7687 113.363 51.5371 112.862C50.3056 112.361 48.9865 112.106 47.6555 112.112Z" fill="white"/>
</svg>
