<svg width="60" height="60" viewBox="0 0 60 60" fill="none" xmlns="http://www.w3.org/2000/svg">
<path d="M49.095 46.366H10.9056C10.9056 46.366 0.953874 0 29.9999 0C59.045 0 49.095 46.366 49.095 46.366Z" fill="#E2A437"/>
<path d="M51.4312 45.2765L51.2188 45.2143C48.1171 44.383 47.0697 43.5809 45.689 43.0573C40.7891 41.1896 39.5145 39.8456 39.1887 39.2102C39.1777 39.1864 39.1667 39.1626 39.1558 39.1389L39.1155 33.4498L29.9996 33.3179L20.8828 33.4498L20.8425 39.1389C20.8315 39.1626 20.8223 39.1864 20.8113 39.2102C20.4854 39.8456 19.211 41.1897 14.3129 43.0573C12.9323 43.581 11.8831 44.383 8.78122 45.2143L8.56887 45.2765C5.74531 46.2104 3.84473 48.8288 3.84473 51.784V60H29.9996H56.1552V51.784C56.1553 48.8288 54.2546 46.2104 51.4312 45.2765Z" fill="#AC92EB"/>
<path d="M46.1211 22.3884C46.1211 32.8619 36.1345 42.5007 29.9996 42.5007C23.8655 42.5007 13.8809 32.8619 13.8809 22.3884C13.8809 11.9147 21.097 5.00423 29.9996 5.00423C38.9032 5.00423 46.1211 11.9147 46.1211 22.3884Z" fill="#EAC6BB"/>
<path d="M33.6516 9.95912L50.2153 21.2659C48.7395 10.3473 43.7224 0 29.9995 0L33.6516 9.95912Z" fill="#F6BB42"/>
<path d="M31.1751 14.8169C36.5263 10.9698 41.1332 7.18501 43.5026 5.18365C40.3934 2.00687 36.0392 0 29.9995 0C13.976 0 9.82124 14.112 9.31592 26.7646C14.8732 25.2704 22.2048 21.264 31.1751 14.8169Z" fill="#FFCE54"/>
</svg>
