<svg width="50" height="50" viewBox="0 0 50 50" fill="none" xmlns="http://www.w3.org/2000/svg">
<path fill-rule="evenodd" clip-rule="evenodd" d="M25 13.3255C21.7342 13.3255 19.1163 15.9597 19.1163 19.2092C19.1163 22.3459 21.5666 24.9034 24.6713 25.0659C24.8852 25.0485 25.1133 25.0469 25.3348 25.0656C28.4261 24.9004 30.8634 22.3529 30.8837 19.2042C30.8811 15.9605 28.2444 13.3255 25 13.3255ZM15.6279 19.2092C15.6279 14.04 19.8008 9.83711 25 9.83711C30.1726 9.83711 34.3721 14.0366 34.3721 19.2092C34.3721 19.2124 34.3721 19.2157 34.3721 19.219C34.3436 24.2617 30.3772 28.3852 25.3385 28.557C25.2386 28.5604 25.1385 28.5552 25.0395 28.5415C25.039 28.5414 25.0385 28.5414 25.038 28.5414C25.032 28.541 25.022 28.5406 25.0088 28.5406C24.9802 28.5406 24.9538 28.5425 24.9373 28.5445C24.8459 28.556 24.7537 28.5601 24.6616 28.557C19.6317 28.3855 15.6279 24.2684 15.6279 19.2092Z" fill="white"/>
<path fill-rule="evenodd" clip-rule="evenodd" d="M14.4112 37.6128C12.62 38.8192 11.6188 40.1997 11.2287 41.5117C14.964 44.6396 19.7527 46.5116 24.9998 46.5116C30.2469 46.5116 35.0357 44.6396 38.771 41.5117C38.3807 40.1991 37.3787 38.818 35.5861 37.6112C32.7716 35.7287 28.9446 34.7326 25.0173 34.7326C21.0916 34.7326 17.2513 35.7279 14.4112 37.6128ZM25.0173 31.2443C29.4727 31.2443 34.0169 32.364 37.5279 34.7133L37.5316 34.7158C40.3285 36.5978 42.1079 39.1523 42.4086 41.9783C42.4671 42.5291 42.2606 43.0751 41.8521 43.4492C37.4039 47.5225 31.4995 50 24.9998 50C18.5001 50 12.5958 47.5225 8.14756 43.4492C7.73904 43.0751 7.5325 42.5291 7.5911 41.9783C7.89174 39.1523 9.67114 36.5978 12.468 34.7158C12.4709 34.7138 12.4738 34.7119 12.4767 34.71C16.0082 32.3642 20.5612 31.2443 25.0173 31.2443Z" fill="white"/>
<path fill-rule="evenodd" clip-rule="evenodd" d="M0 24.9999C0 11.1928 11.1928 0 24.9999 0C38.8068 0 49.9998 11.1928 49.9998 24.9999C49.9998 38.8068 38.8068 49.9998 24.9999 49.9998C11.1928 49.9998 0 38.8068 0 24.9999ZM24.9999 3.48836C13.1194 3.48836 3.48836 13.1194 3.48836 24.9999C3.48836 36.8803 13.1194 46.5114 24.9999 46.5114C36.8803 46.5114 46.5114 36.8803 46.5114 24.9999C46.5114 13.1194 36.8803 3.48836 24.9999 3.48836Z" fill="white"/>
</svg>
