<svg width="120" height="120" viewBox="0 0 120 120" fill="none" xmlns="http://www.w3.org/2000/svg">
<path d="M60 120C93.1368 120 120 93.1374 120 60C120 26.8629 93.1368 0 60 0C26.8629 0 0 26.8629 0 60C0 93.1374 26.8629 120 60 120Z" fill="#7CACA0"/>
<path d="M60 29.5795C47.58 29.5795 37.5 39.6595 37.5 52.0792C37.5 64.2592 47.04 74.1592 59.7 74.5192C59.88 74.5192 60.12 74.5192 60.24 74.5192C60.36 74.5192 60.54 74.5192 60.66 74.5192C60.72 74.5192 60.78 74.5192 60.78 74.5192C72.9 74.0992 82.44 64.2592 82.5 52.0792C82.5 39.6595 72.42 29.5795 60 29.5795Z" fill="#074435"/>
<path d="M100.684 104.1C90.0042 113.94 75.7242 120 60.0042 120C44.2842 120 30.0042 113.94 19.3242 104.1C20.7642 98.6399 24.6642 93.6599 30.3642 89.8199C46.7442 78.8999 73.3842 78.8999 89.6442 89.8199C95.4043 93.6599 99.2443 98.6399 100.684 104.1Z" fill="#074435"/>
</svg>
