<svg width="92" height="92" viewBox="0 0 92 92" fill="none" xmlns="http://www.w3.org/2000/svg">
<mask id="mask0_9_132" style="mask-type:luminance" maskUnits="userSpaceOnUse" x="0" y="0" width="92" height="92">
<path d="M91.2286 0.571411H0.371429V91.4286H91.2286V0.571411Z" fill="white"/>
</mask>
<g mask="url(#mask0_9_132)">
<path fill-rule="evenodd" clip-rule="evenodd" d="M46.0001 24.9858C40.1216 24.9858 35.4093 29.7275 35.4093 35.5765C35.4093 41.2226 39.8199 45.8261 45.4084 46.1187C45.7934 46.0872 46.2039 46.0844 46.6026 46.1181C52.1671 45.8208 56.5542 41.2351 56.5907 35.5676C56.5859 29.7289 51.8399 24.9858 46.0001 24.9858ZM29.1303 35.5765C29.1303 26.2721 36.6414 18.7068 46.0001 18.7068C55.3107 18.7068 62.8698 26.2659 62.8698 35.5765C62.8698 35.5824 62.8698 35.5883 62.8697 35.5942C62.8184 44.6711 55.679 52.0934 46.6094 52.4026C46.4295 52.4087 46.2493 52.3993 46.071 52.3746C46.0703 52.3746 46.0694 52.3745 46.0684 52.3744C46.0576 52.3737 46.0396 52.373 46.0158 52.373C45.9643 52.373 45.9169 52.3764 45.8872 52.3801C45.7226 52.4007 45.5566 52.4082 45.3908 52.4026C36.3371 52.0939 29.1303 44.6831 29.1303 35.5765Z" fill="white"/>
<path fill-rule="evenodd" clip-rule="evenodd" d="M26.9403 68.7031C23.7162 70.8746 21.9141 73.3595 21.2118 75.7211C27.9354 81.3513 36.5551 84.721 45.9999 84.721C55.4447 84.721 64.0644 81.3513 70.7879 75.7211C70.0854 73.3584 68.2819 70.8724 65.0551 68.7002C59.9891 65.3117 53.1005 63.5187 46.0313 63.5187C38.9651 63.5187 32.0525 65.3103 26.9403 68.7031ZM46.0313 57.2397C54.0511 57.2397 62.2307 59.2552 68.5503 63.4838L68.5571 63.4884C73.5915 66.876 76.7944 71.4741 77.3356 76.561C77.4411 77.5525 77.0693 78.5351 76.334 79.2085C68.3271 86.5406 57.6994 91 45.9999 91C34.3004 91 23.6726 86.5406 15.6658 79.2085C14.9305 78.5351 14.5587 77.5525 14.6642 76.561C15.2053 71.4741 18.4082 66.876 23.4426 63.4884C23.4478 63.4849 23.453 63.4814 23.4583 63.478C29.815 59.2556 38.0104 57.2397 46.0313 57.2397Z" fill="white"/>
<path fill-rule="evenodd" clip-rule="evenodd" d="M1 45.9998C1 21.1471 21.1471 1 45.9998 1C70.8523 1 90.9996 21.1471 90.9996 45.9998C90.9996 70.8523 70.8523 90.9996 45.9998 90.9996C21.1471 90.9996 1 70.8523 1 45.9998ZM45.9998 7.27904C24.6149 7.27904 7.27904 24.6149 7.27904 45.9998C7.27904 67.3845 24.6149 84.7205 45.9998 84.7205C67.3845 84.7205 84.7205 67.3845 84.7205 45.9998C84.7205 24.6149 67.3845 7.27904 45.9998 7.27904Z" fill="white"/>
</g>
</svg>
