<svg width="30" height="30" viewBox="0 0 30 30" fill="none" xmlns="http://www.w3.org/2000/svg">
<g clip-path="url(#clip0_16_370)">
<path d="M26.0094 0H3.99066C3.32972 0 2.79382 0.53584 2.79382 1.19684V28.8032C2.79382 29.4642 3.32966 30.0001 3.99066 30.0001H19.867C20.1844 30.0001 20.4888 29.874 20.7133 29.6495L26.8556 23.5072C27.08 23.2828 27.2061 22.9784 27.2061 22.6608V1.19684C27.2062 0.53584 26.6704 0 26.0094 0ZM14.3151 22.5115H12.5219V24.3047C12.5219 24.9656 11.9861 25.5015 11.3251 25.5015C10.6641 25.5015 10.1282 24.9657 10.1282 24.3047V22.5115H8.33503C7.6741 22.5115 7.1382 21.9756 7.1382 21.3146C7.1382 20.6537 7.67404 20.1178 8.33503 20.1178H10.1282V18.3246C10.1282 17.6637 10.6641 17.1278 11.3251 17.1278C11.9861 17.1278 12.5219 17.6636 12.5219 18.3246V20.1178H14.3151C14.976 20.1178 15.5118 20.6537 15.5118 21.3146C15.5118 21.9756 14.9761 22.5115 14.3151 22.5115ZM14.5213 14.5988H8.33515C7.67421 14.5988 7.13832 14.063 7.13832 13.402C7.13832 12.741 7.67416 12.2051 8.33515 12.2051H14.5213C15.1822 12.2051 15.7181 12.741 15.7181 13.402C15.7181 14.063 15.1822 14.5988 14.5213 14.5988ZM21.6649 10.9259H8.33515C7.67421 10.9259 7.13832 10.3901 7.13832 9.72914C7.13832 9.0682 7.67416 8.5323 8.33515 8.5323H21.6649C22.3258 8.5323 22.8617 9.06814 22.8617 9.72914C22.8617 10.3901 22.3258 10.9259 21.6649 10.9259ZM21.6649 7.25291H8.33515C7.67421 7.25291 7.13832 6.71707 7.13832 6.05607C7.13832 5.39508 7.67416 4.85924 8.33515 4.85924H21.6649C22.3258 4.85924 22.8617 5.39508 22.8617 6.05607C22.8617 6.71707 22.3258 7.25291 21.6649 7.25291Z" fill="white"/>
</g>
<defs>
<clipPath id="clip0_16_370">
<rect width="30" height="30" fill="white"/>
</clipPath>
</defs>
</svg>
