<svg width="92" height="92" viewBox="0 0 92 92" fill="none" xmlns="http://www.w3.org/2000/svg">
<path d="M42.163 47.5889V47.4336V27.5381C42.163 25.4193 43.8808 23.7016 45.9995 23.7016C48.1183 23.7016 49.8361 25.4193 49.8361 27.5381V44.4107L60.2507 54.8253C61.749 56.3236 61.7491 58.7529 60.2507 60.2507L42.163 47.5889ZM42.163 47.5889L42.2729 47.6987L54.8253 60.2507C54.8253 60.2507 54.8253 60.2507 54.8253 60.2507C56.3232 61.749 58.7524 61.749 60.2507 60.2508L42.163 47.5889ZM8.64805 40.4428L8.27652 40.3919L8.64805 40.4428C8.93574 38.3434 7.46725 36.4086 5.36802 36.1209C3.26884 35.8332 1.33377 37.3014 1.04603 39.4008C-0.82209 53.0299 3.52849 67.4027 14.0629 77.9369C31.8384 95.7125 60.5679 95.8962 78.2323 78.2323C95.8962 60.5683 95.7125 31.8386 77.9369 14.0631C60.3807 -3.49333 32.1385 -3.88899 14.426 13.1226L14.4131 10.5576C14.4025 8.43871 12.6762 6.72966 10.5574 6.7403C8.43853 6.75099 6.72947 8.47727 6.74016 10.5961L6.79919 22.3448C6.80978 24.4486 8.51259 26.1514 10.6164 26.162L22.3651 26.2211C24.4839 26.2317 26.2102 24.5227 26.2209 22.4038C26.2315 20.285 24.5225 18.5587 22.4037 18.5481L19.8682 18.5353C34.5353 4.58319 57.9067 4.88425 72.511 19.4887C87.3416 34.3193 87.4226 58.1902 72.8064 72.8064C58.1902 87.4226 34.3191 87.3421 19.4886 72.5115C10.7101 63.733 7.09428 51.7782 8.64805 40.4428Z" fill="white" stroke="white" stroke-width="0.75"/>
</svg>
