<svg width="91" height="91" viewBox="0 0 91 91" fill="none" xmlns="http://www.w3.org/2000/svg">
<path fill-rule="evenodd" clip-rule="evenodd" d="M0.131836 0.0666504H32.8198V32.6706H0.131836V0.0666504ZM81.665 81.8515H90V90.0667H81.665V81.8515ZM65.647 81.8368H73.9819V89.6632H65.647H65.6396H57.312V73.6583H65.3833V65.5459H73.5938V49.3723H81.9287V57.3234H89.8682V65.5385H81.9287V73.7537H73.7183H73.5938H65.647V81.8368ZM40.8984 65.4138H48.9697V57.1987H41.1621V48.9835H48.9697V40.7684H41.0303V48.9835H32.688V40.7684H40.8911V16.3723H49.2261V40.761H57.2974V48.9762H65.2368V40.761H73.5718V48.9762H65.647V57.1913H57.312V73.3649H49.2334V89.6706H40.8984V65.4138ZM81.5259 40.761H89.8608V48.9762H81.5259V40.761ZM16.4136 40.761H24.7485V48.9762H16.4136V40.761ZM0.131836 40.761H8.4668V48.9762H0.131836V40.761ZM40.8984 0.0666504H49.2334V8.28181H40.8984V0.0666504ZM0 57.3234H32.688V89.9273H0V57.3234ZM7.93945 65.2451H24.7485V82.0129H7.93945V65.2451ZM57.1729 0.0666504H89.8608V32.6706H57.1729V0.0666504ZM65.1196 7.98841H81.9287V24.7561H65.1196V7.98841ZM8.07129 7.98841H24.8804V24.7561H8.07129V7.98841Z" fill="white"/>
</svg>
