<svg width="92" height="92" viewBox="0 0 92 92" fill="none" xmlns="http://www.w3.org/2000/svg">
<mask id="mask0_9_132" style="mask-type:luminance" maskUnits="userSpaceOnUse" x="0" y="0" width="92" height="92">
<path d="M91.2286 0.571411H0.371429V91.4286H91.2286V0.571411Z" fill="white"/>
</mask>
<g mask="url(#mask0_9_132)">
<path fill-rule="evenodd" clip-rule="evenodd" d="M0.371429 6.24998C0.371429 3.11176 2.91178 0.571411 6.05 0.571411H57.1571C60.2954 0.571411 62.8357 3.11176 62.8357 6.24998V17.6071H71.3536C74.4918 17.6071 77.0321 20.1475 77.0321 23.2857V74.3928H85.55V11.9286H68.5143C66.9462 11.9286 65.675 10.6574 65.675 9.08927C65.675 7.52117 66.9462 6.24998 68.5143 6.24998H85.55C88.6882 6.24998 91.2286 8.79033 91.2286 11.9286V74.3928C91.2286 77.5311 88.6882 80.0714 85.55 80.0714H77.0321V85.75C77.0321 88.8882 74.4918 91.4286 71.3536 91.4286H20.2464C17.1082 91.4286 14.5679 88.8882 14.5679 85.75V23.2857C14.5679 20.1475 17.1082 17.6071 20.2464 17.6071H57.1571V6.24998H6.05V68.6508C6.05114 68.6607 6.05295 68.6744 6.05573 68.6911C6.05705 68.699 6.05844 68.7067 6.05989 68.7143H8.88929C10.4574 68.7143 11.7286 69.9855 11.7286 71.5536C11.7286 73.1217 10.4574 74.3928 8.88929 74.3928H6.05C4.84335 74.3928 3.7496 74.083 2.83359 73.4723C1.93535 72.8735 1.37196 72.0954 1.02609 71.4037C0.685782 70.7231 0.52978 70.0768 0.454425 69.6247C0.415626 69.3919 0.395127 69.1917 0.38419 69.0386C0.378687 68.9615 0.375508 68.895 0.373699 68.8407C0.372793 68.8136 0.372226 68.7893 0.371885 68.7682C0.371715 68.7576 0.371601 68.7479 0.37153 68.7389L0.371453 68.726L0.371435 68.72L0.371431 68.7171C0.37143 68.7157 0.371429 68.7143 3.21072 68.7143H0.371429V6.24998ZM5.89637 68.7024C5.89367 68.7018 5.8924 68.7014 5.89242 68.7014C5.89245 68.7013 5.8938 68.7016 5.89637 68.7024ZM20.2464 23.2857V85.75H71.3536V23.2857H20.2464ZM71.3536 85.7514C71.3536 85.7514 71.3536 85.7515 71.3536 85.7514V85.7514ZM31.6036 37.4821C31.6036 35.914 32.8748 34.6428 34.4429 34.6428H42.9607C44.5288 34.6428 45.8 35.914 45.8 37.4821C45.8 39.0502 44.5288 40.3214 42.9607 40.3214H34.4429C32.8748 40.3214 31.6036 39.0502 31.6036 37.4821ZM31.6036 46C31.6036 44.4319 32.8748 43.1607 34.4429 43.1607H57.1571C58.7252 43.1607 59.9964 44.4319 59.9964 46C59.9964 47.5681 58.7252 48.8393 57.1571 48.8393H34.4429C32.8748 48.8393 31.6036 47.5681 31.6036 46ZM31.6036 57.3571C31.6036 55.789 32.8748 54.5178 34.4429 54.5178H57.1571C58.7252 54.5178 59.9964 55.789 59.9964 57.3571C59.9964 58.9252 58.7252 60.1964 57.1571 60.1964H34.4429C32.8748 60.1964 31.6036 58.9252 31.6036 57.3571ZM31.6036 68.7143C31.6036 67.1462 32.8748 65.875 34.4429 65.875H57.1571C58.7252 65.875 59.9964 67.1462 59.9964 68.7143C59.9964 70.2824 58.7252 71.5536 57.1571 71.5536H34.4429C32.8748 71.5536 31.6036 70.2824 31.6036 68.7143ZM71.3536 85.7514C71.3535 85.753 71.3534 85.754 71.3534 85.7545L71.3536 85.7514ZM71.3534 85.7545C71.3533 85.7551 71.3533 85.7551 71.3534 85.7547L71.3534 85.7545ZM71.3534 85.7547C71.3534 85.7545 71.3535 85.7542 71.3536 85.7539L71.3534 85.7547ZM71.3536 85.7539C71.3536 85.7537 71.3537 85.7534 71.3538 85.7531L71.3536 85.7539ZM71.3538 85.7531C71.354 85.7525 71.3542 85.7518 71.3545 85.7513L71.3538 85.7531ZM71.3545 85.7513C71.3545 85.7512 71.3546 85.7511 71.3546 85.751L71.3545 85.7513Z" fill="white"/>
</g>
</svg>
