<svg width="13" height="16" viewBox="0 0 13 16" fill="none" xmlns="http://www.w3.org/2000/svg">
<path fill-rule="evenodd" clip-rule="evenodd" d="M0.681818 0C0.305264 0 0 0.313514 0 0.700246V14.7052C0 15.0919 0.305264 15.4054 0.681818 15.4054C1.05837 15.4054 1.36364 15.0919 1.36364 14.7052V8.82191C1.68138 8.65945 2.18368 8.43299 2.72217 8.29476C3.68803 8.0468 4.46317 8.13833 4.88727 8.79158C5.67886 10.011 7.19059 10.1184 8.35405 9.99937C9.5818 9.87374 10.7965 9.46081 11.4105 9.22756C11.95 9.02267 12.2727 8.4965 12.2727 7.94135V3.30752C12.2727 2.22116 11.153 1.58692 10.2606 2.00257C9.53693 2.33965 8.5755 2.71608 7.70666 2.84041C6.79766 2.97049 6.26973 2.79447 6.02182 2.41265C5.12734 1.0347 3.59699 0.871568 2.50019 0.965436C2.07914 1.00148 1.6879 1.07709 1.36364 1.15715V0.700246C1.36364 0.313514 1.05837 0 0.681818 0ZM1.36364 2.60566V7.28585C1.6642 7.1598 2.01556 7.03257 2.39146 6.93607C3.47105 6.65892 5.08227 6.56739 6.02182 8.01466C6.34814 8.51737 7.10011 8.72023 8.21884 8.60581C9.25623 8.49965 10.3242 8.14533 10.9091 7.92482V3.30752C10.9091 3.27571 10.8464 3.26751 10.8239 3.27803C10.0619 3.6329 8.95882 4.07523 7.89484 4.2275C6.87109 4.37401 5.598 4.28445 4.88727 3.18954C4.41811 2.46685 3.56209 2.2799 2.61344 2.36109C2.13003 2.40247 1.68018 2.51126 1.36364 2.60566Z" fill="white"/>
</svg>
