<svg width="90" height="141" viewBox="0 0 90 141" fill="none" xmlns="http://www.w3.org/2000/svg">
<path d="M22.2143 55.438L32.0065 51.75H59.5L64.3961 53.9628L75.6948 62.0764L83.9805 73.1405L88.5 88.6302V141H1.5V128.83V105.226L3.00649 80.1477L11.6688 64.6581L22.2143 55.438Z" fill="#007552"/>
<path d="M7.32057 68.388C12.2743 60.8662 19.4041 55.0044 27.7751 51.5712C22.9099 47.9802 19.3093 42.96 17.4848 37.2237C15.6604 31.4874 15.7049 25.3267 17.6119 19.6169C19.519 13.9071 23.1917 8.93849 28.1083 5.41695C33.0249 1.8954 38.9353 0 45 0C51.0646 0 56.975 1.8954 61.8916 5.41695C66.8082 8.93849 70.4809 13.9071 72.388 19.6169C74.2951 25.3267 74.3396 31.4874 72.5151 37.2237C70.6907 42.96 67.0901 47.9802 62.2248 51.5712C70.4564 54.9462 77.4912 60.6708 82.4364 68.0183C87.3816 75.3658 90.0142 84.005 89.9999 92.8391V140.887H86.1243V92.8391C86.1597 84.1485 83.3806 75.6762 78.1963 68.6698C73.0119 61.6634 65.6963 56.4931 57.3265 53.9203C56.9592 53.8128 56.6336 53.5968 56.3932 53.3011C56.1528 53.0054 56.0089 52.6441 55.9808 52.2653C55.927 51.8926 55.9914 51.5126 56.165 51.1778C56.3386 50.8431 56.6128 50.5701 56.9497 50.3967C61.8241 47.7627 65.6748 43.5932 67.8937 38.5467C70.1127 33.5002 70.5733 27.8645 69.203 22.5294C67.8327 17.1943 64.7094 12.4641 60.3266 9.08565C55.9437 5.70722 50.5509 3.87318 45 3.87318C39.449 3.87318 34.0563 5.70722 29.6734 9.08565C25.2905 12.4641 22.1672 17.1943 20.7969 22.5294C19.4266 27.8645 19.8873 33.5002 22.1062 38.5467C24.3251 43.5932 28.1759 47.7627 33.0502 50.3967C33.3826 50.5791 33.6555 50.8518 33.8367 51.1829C34.0179 51.514 34.0999 51.8895 34.0729 52.2653C34.025 52.6376 33.8738 52.9894 33.6362 53.2816C33.3986 53.5738 33.084 53.7949 32.7272 53.9203C24.3475 56.4837 17.02 61.6499 11.8253 68.6571C6.63066 75.6644 3.84376 84.1417 3.8756 92.8391V140.887H0V92.8391C0.000485778 85.6335 1.73516 78.532 5.05981 72.1251M45 116.116C44.7512 116.119 44.5043 116.074 44.2733 115.982C44.0423 115.891 43.8319 115.755 43.6543 115.582L27.506 99.5658C26.4418 98.5174 25.5987 97.2694 25.0257 95.8945C24.4527 94.5197 24.1614 93.0455 24.1686 91.5578C24.1632 90.0625 24.4551 88.5808 25.0278 87.1975C25.6005 85.8142 26.4426 84.5565 27.506 83.4965C28.5847 82.4286 29.871 81.5894 31.2867 81.0296C32.7024 80.4698 34.218 80.2011 35.7416 80.2399C37.2493 80.2344 38.7433 80.524 40.138 81.092C41.5327 81.66 42.8008 82.4952 43.8696 83.5498L45 84.7243L46.1303 83.6032C48.3104 81.553 51.2002 80.4102 54.2045 80.4102C57.2088 80.4102 60.0986 81.553 62.2787 83.6032C64.3958 85.7398 65.5821 88.6156 65.5821 91.6112C65.5821 94.6068 64.3958 97.4826 62.2787 99.6192L46.1303 115.635C45.8141 115.91 45.4184 116.078 45 116.116ZM35.7416 84.0837C33.7277 84.0868 31.7953 84.8726 30.3588 86.2725C28.9388 87.6924 28.142 89.6113 28.142 91.6112C28.142 93.6111 28.9388 95.53 30.3588 96.9499L45 111.471L59.6411 96.9499C60.3573 96.2568 60.9227 95.4255 61.3022 94.5073C61.6818 93.5891 61.8676 92.6034 61.848 91.6112C61.8507 89.6127 61.0575 87.694 59.6411 86.2725C58.1837 84.9137 56.2586 84.1572 54.2583 84.1572C52.258 84.1572 50.333 84.9137 48.8756 86.2725L46.3457 88.7817C46.1656 88.9609 45.9517 89.1031 45.7162 89.2001C45.4806 89.2971 45.2281 89.347 44.9731 89.347C44.718 89.347 44.4655 89.2971 44.2299 89.2001C43.9944 89.1031 43.7805 88.9609 43.6005 88.7817L41.1244 86.2725C40.4164 85.5745 39.5765 85.0219 38.6528 84.6463C37.7292 84.2707 36.7399 84.0795 35.7416 84.0837Z" fill="#7CACA0"/>
</svg>
