<svg width="90" height="156" viewBox="0 0 90 156" fill="none" xmlns="http://www.w3.org/2000/svg">
<path d="M22.125 68.25L31.875 64.5H59.25L64.125 66.75L75.375 75L83.625 86.25L88.125 102V155.25H1.5V142.875V118.875L3 93.375L11.625 77.625L22.125 68.25Z" fill="#007552"/>
<path d="M78.5346 75.3858C76.2763 72.8654 73.7691 70.5884 71.0526 68.5908C69.2225 67.3304 67.3385 66.1797 65.3469 65.0837L62.2788 63.659C63.1722 62.9905 64.0177 62.258 64.8087 61.467C65.6343 60.6995 66.4077 59.8757 67.1232 59.0011C71.4892 53.7668 73.8921 47.1269 73.9055 40.2601C73.9068 34.7612 72.3946 29.372 69.5404 24.7035C66.6862 20.0351 62.6042 16.2742 57.7573 13.8473C57.7573 13.5185 57.7573 13.1897 57.7573 12.8609C57.74 9.66763 56.5627 6.59376 54.4522 4.23129C52.3418 1.86882 49.4473 0.384802 46.3263 0.0650306C43.2053 -0.254741 40.0785 0.612343 37.5479 2.49931C35.0173 4.38627 33.262 7.15967 32.62 10.2854C32.5379 11.1419 32.5379 12.0045 32.62 12.8609V13.8473C27.7249 16.2289 23.5854 19.9625 20.6732 24.6227C17.761 29.2829 16.1934 34.6822 16.1489 40.2053C16.1571 44.7589 17.2131 49.2473 19.2321 53.3107C21.2512 57.374 24.1771 60.8994 27.7755 63.6041L24.7074 65.0289C22.7312 66.0679 20.8251 67.2395 19.0017 68.536L16.1489 70.6731C14.5151 72.071 12.969 73.5718 11.5197 75.1666C10.0163 76.8942 8.63146 78.7252 7.37501 80.6464C2.5176 88.16 -0.0481438 96.9685 0.00068417 105.963V155.282H3.87624V105.963C3.86226 98.4895 5.81376 91.1481 9.5281 84.7015L9.85107 84.2083C10.4878 83.0895 11.1887 82.0099 11.9503 80.9752C12.7889 79.8484 13.6874 78.7691 14.6417 77.7421C15.5744 76.7011 16.5627 75.7133 17.6022 74.783L18.5711 73.9062C19.4861 73.1391 20.455 72.3719 21.4777 71.6595V84.1535C21.4836 90.1495 23.6987 95.9252 27.6853 100.339C31.672 104.753 37.14 107.483 43.0086 107.991V120.43C40.5689 120.92 38.3956 122.317 36.9118 124.348C35.4281 126.38 34.7402 128.901 34.982 131.421C35.2238 133.94 36.378 136.278 38.2199 137.979C40.0619 139.68 42.4596 140.622 44.9464 140.622C47.4332 140.622 49.831 139.68 51.6729 137.979C53.5148 136.278 54.669 133.94 54.9108 131.421C55.1526 128.901 54.4647 126.38 52.981 124.348C51.4973 122.317 49.3239 120.92 46.8842 120.43V107.881C52.7482 107.361 58.2092 104.627 62.1934 100.216C66.1776 95.8051 68.397 90.0363 68.4151 84.0439V71.5499C69.5862 72.3667 70.7012 73.2638 71.7524 74.235C71.9543 74.35 72.1362 74.4981 72.2906 74.6734C73.2583 75.5304 74.175 76.4453 75.0358 77.4133C77.118 79.6078 78.926 82.0557 80.4186 84.7015C84.174 91.1331 86.1458 98.4811 86.1242 105.963V155.282H89.9998V105.963C90.0324 94.6765 85.9466 83.7795 78.5346 75.3858ZM45.0002 3.81922C46.7462 3.81922 48.4529 4.34629 49.9046 5.33379C51.3563 6.32128 52.4878 7.72485 53.1559 9.36699C53.8241 11.0091 53.9989 12.8161 53.6583 14.5594C53.3177 16.3027 52.4769 17.904 51.2423 19.1608C50.0078 20.4177 48.4348 21.2736 46.7224 21.6204C45.01 21.9671 43.2351 21.7892 41.622 21.109C40.009 20.4288 38.6303 19.2769 37.6603 17.799C36.6903 16.3211 36.1726 14.5836 36.1726 12.8061C36.1867 10.4271 37.1213 8.14958 38.7737 6.46731C40.4262 4.78504 42.6634 3.83359 45.0002 3.81922ZM49.3064 126.184C49.8747 126.769 50.331 127.456 50.6521 128.211C50.9719 128.973 51.1368 129.794 51.1368 130.622C51.1368 131.451 50.9719 132.271 50.6521 133.034C50.331 133.789 49.8747 134.476 49.3064 135.061C48.7423 135.638 48.0711 136.095 47.3318 136.406C46.5925 136.716 45.7999 136.874 45.0002 136.869C43.3728 136.869 41.812 136.211 40.6612 135.04C39.5104 133.868 38.8639 132.279 38.8639 130.622C38.8639 128.966 39.5104 127.377 40.6612 126.205C41.812 125.034 43.3728 124.375 45.0002 124.375C45.7999 124.371 46.5925 124.529 47.3318 124.839C48.0711 125.15 48.7423 125.607 49.3064 126.184ZM64.5934 84.0439C64.5934 89.3341 62.5291 94.4076 58.8547 98.1483C55.1802 101.889 50.1967 103.99 45.0002 103.99C39.8038 103.99 34.8202 101.889 31.1458 98.1483C27.4714 94.4076 25.4071 89.3341 25.4071 84.0439V69.1388C27.7304 67.8735 30.1628 66.8279 32.6738 66.0153C33.0411 65.9049 33.3667 65.6832 33.6071 65.3797C33.8475 65.0762 33.9914 64.7054 34.0195 64.3165C34.0583 63.9356 33.9873 63.5514 33.8153 63.2108C33.6432 62.8703 33.3775 62.588 33.0506 62.3986C29.8451 60.6377 27.0598 58.1799 24.8923 55.1999C22.7248 52.2198 21.2283 48.7905 20.509 45.1554C19.7897 41.5204 19.8653 37.7687 20.7305 34.1667C21.5956 30.5647 23.229 27.2008 25.5148 24.3138C26.1836 23.3986 26.941 22.5542 27.7755 21.7931C29.3816 20.2 31.1923 18.8359 33.1583 17.738C33.3952 18.3195 33.6648 18.8867 33.9657 19.4367C34.6047 20.5223 35.4035 21.5018 36.3341 22.341C38.6622 24.5347 41.7204 25.7487 44.8926 25.7385C47.4066 25.7367 49.8636 24.9756 51.9525 23.5514C54.0414 22.1271 55.6682 20.104 56.6269 17.738C60.6418 19.9014 64.0043 23.1341 66.3554 27.0911C68.7065 31.0481 69.9579 35.5808 69.9761 40.2053C69.9766 45.8825 68.0782 51.3906 64.5934 55.8228C63.9107 56.7262 63.1544 57.5695 62.3326 58.3435C60.7399 59.9525 58.9269 61.3184 56.9499 62.3986C56.6175 62.5857 56.3446 62.8657 56.1634 63.2055C55.9822 63.5453 55.9003 63.9308 55.9272 64.3165C55.9813 64.6953 56.1295 65.0536 56.3578 65.3577C56.6053 65.6498 56.9195 65.8757 57.2729 66.0153C59.8044 66.8188 62.2556 67.8646 64.5934 69.1388V84.0439Z" fill="#7CACA0"/>
</svg>
