<svg width="16" height="18" viewBox="0 0 16 18" fill="none" xmlns="http://www.w3.org/2000/svg">
<path d="M8.07114 11.0135C9.31378 11.0135 10.3211 9.97893 10.3211 8.7027C10.3211 7.42648 9.31378 6.39189 8.07114 6.39189C6.8285 6.39189 5.82114 7.42648 5.82114 8.7027C5.82114 9.97893 6.8285 11.0135 8.07114 11.0135Z" stroke="white" stroke-width="1.25"/>
<path d="M9.39521 1.11727C9.11951 1 8.77009 1 8.07116 1C7.37224 1 7.02281 1 6.74711 1.11727C6.37959 1.27362 6.08758 1.57353 5.93534 1.951C5.86584 2.12332 5.83864 2.32371 5.828 2.61602C5.81236 3.04559 5.59786 3.44321 5.23537 3.65815C4.87289 3.87308 4.43036 3.86505 4.06031 3.66418C3.8085 3.52749 3.62592 3.45148 3.44587 3.42714C3.05145 3.3738 2.65255 3.48357 2.33694 3.7323C2.10022 3.91885 1.92549 4.22967 1.57604 4.8513C1.22658 5.47294 1.05186 5.78375 1.01291 6.08757C0.960985 6.49264 1.06787 6.90232 1.31005 7.22648C1.42058 7.37445 1.57594 7.49877 1.81706 7.65436C2.17152 7.88313 2.39958 8.27281 2.39956 8.7027C2.39954 9.13259 2.17148 9.52219 1.81705 9.75089C1.5759 9.90656 1.42053 10.031 1.30998 10.1789C1.06779 10.5031 0.96091 10.9127 1.01284 11.3178C1.05178 11.6216 1.22651 11.9324 1.57596 12.5541C1.92543 13.1757 2.10015 13.4865 2.33686 13.673C2.65247 13.9217 3.05137 14.0315 3.44579 13.9782C3.62583 13.9539 3.8084 13.8778 4.06019 13.7412C4.43027 13.5403 4.87283 13.5323 5.23534 13.7472C5.59784 13.9622 5.81236 14.3598 5.828 14.7895C5.83865 15.0817 5.86584 15.2821 5.93534 15.4544C6.08758 15.8319 6.37959 16.1318 6.74711 16.2882C7.02281 16.4054 7.37224 16.4054 8.07116 16.4054C8.77009 16.4054 9.11951 16.4054 9.39521 16.2882C9.76271 16.1318 10.0548 15.8319 10.2069 15.4544C10.2765 15.2821 10.3037 15.0817 10.3143 14.7894C10.3299 14.3598 10.5444 13.9622 10.9069 13.7472C11.2694 13.5322 11.712 13.5403 12.0821 13.7412C12.3339 13.8778 12.5164 13.9538 12.6964 13.9781C13.0908 14.0315 13.4898 13.9217 13.8054 13.673C14.0421 13.4865 14.2168 13.1757 14.5662 12.554C14.9157 11.9324 15.0905 11.6216 15.1294 11.3178C15.1813 10.9127 15.0744 10.503 14.8323 10.1788C14.7217 10.0309 14.5663 9.90648 14.3252 9.75089C13.9708 9.52219 13.7427 9.13251 13.7427 8.70263C13.7427 8.27274 13.9708 7.88321 14.3252 7.65452C14.5664 7.49885 14.7218 7.37453 14.8323 7.22648C15.0745 6.90237 15.1814 6.4927 15.1295 6.08761C15.0906 5.7838 14.9158 5.47298 14.5663 4.85135C14.2169 4.22972 14.0421 3.9189 13.8054 3.73236C13.4898 3.48363 13.0909 3.37386 12.6965 3.42719C12.5165 3.45153 12.3339 3.52753 12.0821 3.66421C11.712 3.86509 11.2695 3.87312 10.907 3.65817C10.5444 3.44323 10.3299 3.04558 10.3143 2.61598C10.3037 2.32369 10.2765 2.12331 10.2069 1.951C10.0548 1.57353 9.76271 1.27362 9.39521 1.11727Z" stroke="white" stroke-width="1.25"/>
</svg>
