<svg width="23" height="30" viewBox="0 0 23 30" fill="none" xmlns="http://www.w3.org/2000/svg">
<path d="M23 17.5C23 10.5963 17.2794 5 10.2222 5V3.75H8.94444V0H2.55556V3.75H1.27778V10H2.55556V21.25H8.94444V10H10.2222V7.5C15.8585 7.5 20.4444 11.9862 20.4444 17.5C20.4444 23.0138 15.8585 27.5 10.2222 27.5V26.25H11.5V23.75H0V26.25H1.27778V30H10.2222H23V27.5H17.8659C20.9773 25.22 23 21.5963 23 17.5ZM6.38889 18.75H5.11111V11.25H6.38889V18.75ZM7.66667 7.5H3.83333V6.25H7.66667V7.5ZM5.11111 2.5H6.38889V3.75H5.11111V2.5ZM7.66667 27.5H3.83333V26.25H7.66667V27.5Z" fill="white"/>
</svg>
