<svg width="91" height="91" viewBox="0 0 91 91" fill="none" xmlns="http://www.w3.org/2000/svg">
<path d="M88.6113 43.9768C87.1477 42.4618 85.1467 41.5835 83.0409 41.5317C80.935 41.4798 78.8933 42.2587 77.3569 43.6998L62.1269 57.2311C62.8969 58.7163 63.2973 60.3653 63.2939 62.0383C63.2857 64.1955 62.6235 66.2996 61.3946 68.0726C60.1657 69.8457 58.4279 71.2043 56.4107 71.9691L43.6134 76.7763C43.1227 76.9516 42.5827 76.9276 42.1094 76.7094C41.6361 76.4912 41.2672 76.0962 41.0818 75.6091C40.988 75.3678 40.9433 75.1102 40.9504 74.8514C40.9575 74.5925 41.0161 74.3377 41.123 74.1019C41.2298 73.866 41.3827 73.6539 41.5726 73.4779C41.7625 73.3019 41.9856 73.1656 42.2289 73.077L55.0262 68.2698C56.2909 67.7892 57.3801 66.9364 58.15 65.8238C58.9198 64.7112 59.3341 63.3912 59.338 62.0383C59.2894 60.2909 58.5736 58.6285 57.3377 57.3924C56.1017 56.1563 54.4394 55.4402 52.6921 55.3913H15.8235C15.8235 54.8718 15.7212 54.3573 15.5224 53.8773C15.3237 53.3973 15.0323 52.9612 14.665 52.5938C14.2976 52.2264 13.8615 51.9349 13.3815 51.7361C12.9016 51.5372 12.3871 51.4349 11.8676 51.4348H3.95585C3.43632 51.4349 2.92188 51.5372 2.44191 51.7361C1.96194 51.9349 1.52583 52.2264 1.1585 52.5938C0.791162 52.9612 0.499788 53.3973 0.301013 53.8773C0.102237 54.3573 -4.6748e-05 54.8718 1.6028e-08 55.3913V87.0435C-7.34413e-05 88.0927 0.416658 89.099 1.15852 89.841C1.90038 90.583 2.90661 90.9999 3.95585 91H11.8676C12.9168 90.9999 13.9231 90.583 14.6649 89.841C15.4068 89.099 15.8235 88.0927 15.8235 87.0435H23.8341L26.3065 88.0524C33.9792 91.227 42.468 91.8563 50.525 89.848C58.582 87.8396 65.7822 83.2995 71.0671 76.895L89.086 55.1144C90.4008 53.529 91.0802 51.5119 90.9925 49.4542C90.9047 47.3964 90.0562 45.4445 88.6113 43.9768ZM21.7572 83.087H15.8235V59.3478H21.7572V83.087ZM56.2184 6.14796e-05C52.3157 -0.0104315 48.5283 1.32251 45.4924 3.77498C42.4565 1.32252 38.6691 -0.0104279 34.7664 6.14796e-05C30.215 0.0114344 25.8539 1.82761 22.6398 5.0502C19.4257 8.27279 17.6211 12.6386 17.6217 17.1901C17.6217 35.2764 43.3985 50.5249 44.4957 51.1663C44.7984 51.3422 45.1423 51.4348 45.4924 51.4348C45.8425 51.4348 46.1864 51.3422 46.4891 51.1663C47.5862 50.5248 73.3631 35.2764 73.3631 17.1901C73.3638 12.6386 71.5591 8.27278 68.345 5.05019C65.1309 1.82761 60.7699 0.0114292 56.2184 6.14796e-05ZM52.713 36.9086C52.3512 37.2056 51.8945 37.3622 51.4267 37.3496C51.0279 37.3464 50.6395 37.2223 50.3129 36.9937C49.9862 36.765 49.7366 36.4426 49.5972 36.0691C49.4577 35.6955 49.4349 35.2884 49.5318 34.9016C49.6287 34.5148 49.8407 34.1666 50.1399 33.9029C57.4625 27.63 61.4956 21.6933 61.4956 17.1901C61.4997 15.7852 60.9464 14.4361 59.9571 13.4387C58.9678 12.4412 57.6233 11.877 56.2184 11.8696C55.6938 11.8696 55.1906 11.6612 54.8196 11.2902C54.4486 10.9192 54.2402 10.416 54.2402 9.89136C54.2402 9.36669 54.4486 8.86351 54.8196 8.49252C55.1906 8.12152 55.6938 7.9131 56.2184 7.9131C58.6722 7.92158 61.0224 8.90309 62.7533 10.6423C64.4842 12.3815 65.4546 14.7363 65.4514 17.1901C65.4514 24.4674 58.525 31.9282 52.713 36.9086Z" fill="white"/>
</svg>
