<svg width="30" height="30" viewBox="0 0 30 30" fill="none" xmlns="http://www.w3.org/2000/svg">
<path d="M23.3086 26.3906C23.3086 27.1641 22.6758 27.7852 21.9141 27.7852C21.1406 27.7852 20.5195 27.1641 20.5195 26.3906V25.1719H23.3203V26.3906H23.3086ZM19.6172 25.1719H10.3359V29.7188H14.3203V27.7617H15.6563V29.7188H19.6289V25.1719H19.6172ZM9.41016 25.1719H6.60938V26.3906C6.60938 27.1641 7.24219 27.7852 8.00391 27.7852C8.77734 27.7852 9.39844 27.1641 9.39844 26.3906V25.1719H9.41016ZM14.9648 0.234375C12.9727 0.234375 11.3555 1.85156 11.3555 3.84375C11.3555 5.83594 12.9727 7.45312 14.9648 7.45312C16.957 7.45312 18.5742 5.83594 18.5742 3.84375C18.5742 1.85156 16.957 0.234375 14.9648 0.234375ZM25.2422 11.7539H4.6875V23.7656H25.2422V11.7539ZM22.0313 22.7812H7.96875V12.7383H22.0313V22.7812ZM18.3164 18.6797C18.4688 18.6797 18.5977 18.5508 18.5977 18.3984C18.5977 18.2461 18.4688 18.1172 18.3164 18.1172H15.6445V17.2383H18.668C18.8203 17.2383 18.9492 17.1094 18.9492 16.957C18.9492 16.8047 18.8203 16.6758 18.668 16.6758H15.6445V15.7969H18.4805C18.6328 15.7969 18.7617 15.668 18.7617 15.5156C18.7617 15.3633 18.6328 15.2344 18.4805 15.2344H15.6445V14.3555H17.8594C18.0117 14.3555 18.1406 14.2266 18.1406 14.0742C18.1406 13.9219 18.0117 13.793 17.8594 13.793H15.6445V13.3008H14.2734V13.793H12.0586C11.9063 13.793 11.7773 13.9219 11.7773 14.0742C11.7773 14.2266 11.9063 14.3555 12.0586 14.3555H14.2734V15.2344H11.4375C11.2852 15.2344 11.1562 15.3633 11.1562 15.5156C11.1562 15.668 11.2852 15.7969 11.4375 15.7969H14.2617V16.6758H11.2617C11.1094 16.6758 10.9805 16.8047 10.9805 16.957C10.9805 17.1094 11.1094 17.2383 11.2617 17.2383H14.2734V18.1172H11.5898C11.4375 18.1172 11.3086 18.2461 11.3086 18.3984C11.3086 18.5508 11.4375 18.6797 11.5898 18.6797H14.2617V19.5586H11.6836C11.5781 19.5586 11.4141 19.6523 11.4141 19.8164C11.4141 21.3164 11.5547 22.0195 12.3516 22.0195C13.207 22.0195 13.3477 20.1914 14.2617 20.1211V21.8203H15.6328V20.1211C16.5 20.2383 16.6758 22.0195 17.4961 22.0195C18.2813 22.0195 18.4805 21.3164 18.4805 19.8164C18.4805 19.6523 18.3281 19.5586 18.2109 19.5586H15.6328V18.6797H18.3164ZM19.1719 8.34375H10.875C9.375 8.34375 7.98047 9.14062 7.20703 10.3359H22.7344C21.9961 9.15234 20.6719 8.34375 19.1719 8.34375Z" fill="white"/>
</svg>
